G04 #@! TF.FileFunction,Soldermask,Bot*
%FSLAX46Y46*%
G04 Gerber Fmt 4.6, Leading zero omitted, Abs format (unit mm)*
G04 Created by KiCad (PCBNEW 4.0.7-e2-6376~58~ubuntu17.04.1) date Mon Dec 25 20:32:12 2017*
%MOMM*%
%LPD*%
G01*
G04 APERTURE LIST*
%ADD10C,0.100000*%
%ADD11C,0.250000*%
%ADD12R,1.400000X2.000000*%
%ADD13R,0.900000X1.000000*%
%ADD14R,1.200000X1.150000*%
%ADD15R,1.150000X1.200000*%
%ADD16R,0.900000X1.300000*%
%ADD17R,4.200000X2.400000*%
%ADD18R,1.900000X2.400000*%
%ADD19R,1.670000X2.940000*%
%ADD20R,1.924000X2.924000*%
%ADD21O,1.924000X2.924000*%
%ADD22C,2.800000*%
%ADD23C,1.300000*%
G04 APERTURE END LIST*
D10*
D11*
X158997619Y-119621429D02*
X158997619Y-119430952D01*
X158950000Y-119335714D01*
X158854762Y-119240476D01*
X158664286Y-119192857D01*
X158330952Y-119192857D01*
X158140476Y-119240476D01*
X158045238Y-119335714D01*
X157997619Y-119430952D01*
X157997619Y-119621429D01*
X158045238Y-119716667D01*
X158140476Y-119811905D01*
X158330952Y-119859524D01*
X158664286Y-119859524D01*
X158854762Y-119811905D01*
X158950000Y-119716667D01*
X158997619Y-119621429D01*
X158664286Y-118764286D02*
X157664286Y-118764286D01*
X158616667Y-118764286D02*
X158664286Y-118669048D01*
X158664286Y-118478571D01*
X158616667Y-118383333D01*
X158569048Y-118335714D01*
X158473810Y-118288095D01*
X158188095Y-118288095D01*
X158092857Y-118335714D01*
X158045238Y-118383333D01*
X157997619Y-118478571D01*
X157997619Y-118669048D01*
X158045238Y-118764286D01*
X158045238Y-117478571D02*
X157997619Y-117573809D01*
X157997619Y-117764286D01*
X158045238Y-117859524D01*
X158140476Y-117907143D01*
X158521429Y-117907143D01*
X158616667Y-117859524D01*
X158664286Y-117764286D01*
X158664286Y-117573809D01*
X158616667Y-117478571D01*
X158521429Y-117430952D01*
X158426190Y-117430952D01*
X158330952Y-117907143D01*
X158664286Y-117002381D02*
X157997619Y-117002381D01*
X158569048Y-117002381D02*
X158616667Y-116954762D01*
X158664286Y-116859524D01*
X158664286Y-116716666D01*
X158616667Y-116621428D01*
X158521429Y-116573809D01*
X157997619Y-116573809D01*
X158045238Y-116145238D02*
X157997619Y-116002381D01*
X157997619Y-115764285D01*
X158045238Y-115669047D01*
X158092857Y-115621428D01*
X158188095Y-115573809D01*
X158283333Y-115573809D01*
X158378571Y-115621428D01*
X158426190Y-115669047D01*
X158473810Y-115764285D01*
X158521429Y-115954762D01*
X158569048Y-116050000D01*
X158616667Y-116097619D01*
X158711905Y-116145238D01*
X158807143Y-116145238D01*
X158902381Y-116097619D01*
X158950000Y-116050000D01*
X158997619Y-115954762D01*
X158997619Y-115716666D01*
X158950000Y-115573809D01*
D10*
X165108333Y-119949995D02*
X165475000Y-119949995D01*
X165541667Y-119983329D01*
X165575000Y-120049995D01*
X165575000Y-120183329D01*
X165541667Y-120249995D01*
X165141667Y-119949995D02*
X165108333Y-120016662D01*
X165108333Y-120183329D01*
X165141667Y-120249995D01*
X165208333Y-120283329D01*
X165275000Y-120283329D01*
X165341667Y-120249995D01*
X165375000Y-120183329D01*
X165375000Y-120016662D01*
X165408333Y-119949995D01*
X165575000Y-119616662D02*
X165108333Y-119616662D01*
X165508333Y-119616662D02*
X165541667Y-119583329D01*
X165575000Y-119516662D01*
X165575000Y-119416662D01*
X165541667Y-119349996D01*
X165475000Y-119316662D01*
X165108333Y-119316662D01*
X165575000Y-119083329D02*
X165575000Y-118816663D01*
X165808333Y-118983329D02*
X165208333Y-118983329D01*
X165141667Y-118949996D01*
X165108333Y-118883329D01*
X165108333Y-118816663D01*
X165108333Y-118483329D02*
X165141667Y-118549996D01*
X165175000Y-118583329D01*
X165241667Y-118616663D01*
X165441667Y-118616663D01*
X165508333Y-118583329D01*
X165541667Y-118549996D01*
X165575000Y-118483329D01*
X165575000Y-118383329D01*
X165541667Y-118316663D01*
X165508333Y-118283329D01*
X165441667Y-118249996D01*
X165241667Y-118249996D01*
X165175000Y-118283329D01*
X165141667Y-118316663D01*
X165108333Y-118383329D01*
X165108333Y-118483329D01*
X165108333Y-117949996D02*
X165575000Y-117949996D01*
X165808333Y-117949996D02*
X165775000Y-117983330D01*
X165741667Y-117949996D01*
X165775000Y-117916663D01*
X165808333Y-117949996D01*
X165741667Y-117949996D01*
X165575000Y-117616663D02*
X165108333Y-117616663D01*
X165508333Y-117616663D02*
X165541667Y-117583330D01*
X165575000Y-117516663D01*
X165575000Y-117416663D01*
X165541667Y-117349997D01*
X165475000Y-117316663D01*
X165108333Y-117316663D01*
X165141667Y-116716664D02*
X165108333Y-116783330D01*
X165108333Y-116916664D01*
X165141667Y-116983330D01*
X165208333Y-117016664D01*
X165475000Y-117016664D01*
X165541667Y-116983330D01*
X165575000Y-116916664D01*
X165575000Y-116783330D01*
X165541667Y-116716664D01*
X165475000Y-116683330D01*
X165408333Y-116683330D01*
X165341667Y-117016664D01*
X165175000Y-116383330D02*
X165141667Y-116349997D01*
X165108333Y-116383330D01*
X165141667Y-116416664D01*
X165175000Y-116383330D01*
X165108333Y-116383330D01*
X165575000Y-116049997D02*
X164875000Y-116049997D01*
X165541667Y-116049997D02*
X165575000Y-115983331D01*
X165575000Y-115849997D01*
X165541667Y-115783331D01*
X165508333Y-115749997D01*
X165441667Y-115716664D01*
X165241667Y-115716664D01*
X165175000Y-115749997D01*
X165141667Y-115783331D01*
X165108333Y-115849997D01*
X165108333Y-115983331D01*
X165141667Y-116049997D01*
X165108333Y-115416664D02*
X165575000Y-115416664D01*
X165808333Y-115416664D02*
X165775000Y-115449998D01*
X165741667Y-115416664D01*
X165775000Y-115383331D01*
X165808333Y-115416664D01*
X165741667Y-115416664D01*
X165575000Y-115083331D02*
X165108333Y-115083331D01*
X165508333Y-115083331D02*
X165541667Y-115049998D01*
X165575000Y-114983331D01*
X165575000Y-114883331D01*
X165541667Y-114816665D01*
X165475000Y-114783331D01*
X165108333Y-114783331D01*
X165575000Y-114549998D02*
X165575000Y-114283332D01*
X165808333Y-114449998D02*
X165208333Y-114449998D01*
X165141667Y-114416665D01*
X165108333Y-114349998D01*
X165108333Y-114283332D01*
X165108333Y-113949998D02*
X165141667Y-114016665D01*
X165175000Y-114049998D01*
X165241667Y-114083332D01*
X165441667Y-114083332D01*
X165508333Y-114049998D01*
X165541667Y-114016665D01*
X165575000Y-113949998D01*
X165575000Y-113849998D01*
X165541667Y-113783332D01*
X165508333Y-113749998D01*
X165441667Y-113716665D01*
X165241667Y-113716665D01*
X165175000Y-113749998D01*
X165141667Y-113783332D01*
X165108333Y-113849998D01*
X165108333Y-113949998D01*
X165575000Y-113116665D02*
X165108333Y-113116665D01*
X165575000Y-113416665D02*
X165208333Y-113416665D01*
X165141667Y-113383332D01*
X165108333Y-113316665D01*
X165108333Y-113216665D01*
X165141667Y-113149999D01*
X165175000Y-113116665D01*
X165575000Y-112883332D02*
X165575000Y-112616666D01*
X165808333Y-112783332D02*
X165208333Y-112783332D01*
X165141667Y-112749999D01*
X165108333Y-112683332D01*
X165108333Y-112616666D01*
X165175000Y-112383332D02*
X165141667Y-112349999D01*
X165108333Y-112383332D01*
X165141667Y-112416666D01*
X165175000Y-112383332D01*
X165108333Y-112383332D01*
X165141667Y-111749999D02*
X165108333Y-111816666D01*
X165108333Y-111949999D01*
X165141667Y-112016666D01*
X165175000Y-112049999D01*
X165241667Y-112083333D01*
X165441667Y-112083333D01*
X165508333Y-112049999D01*
X165541667Y-112016666D01*
X165575000Y-111949999D01*
X165575000Y-111816666D01*
X165541667Y-111749999D01*
X165108333Y-111349999D02*
X165141667Y-111416666D01*
X165175000Y-111449999D01*
X165241667Y-111483333D01*
X165441667Y-111483333D01*
X165508333Y-111449999D01*
X165541667Y-111416666D01*
X165575000Y-111349999D01*
X165575000Y-111249999D01*
X165541667Y-111183333D01*
X165508333Y-111149999D01*
X165441667Y-111116666D01*
X165241667Y-111116666D01*
X165175000Y-111149999D01*
X165141667Y-111183333D01*
X165108333Y-111249999D01*
X165108333Y-111349999D01*
X165108333Y-110816666D02*
X165575000Y-110816666D01*
X165508333Y-110816666D02*
X165541667Y-110783333D01*
X165575000Y-110716666D01*
X165575000Y-110616666D01*
X165541667Y-110550000D01*
X165475000Y-110516666D01*
X165108333Y-110516666D01*
X165475000Y-110516666D02*
X165541667Y-110483333D01*
X165575000Y-110416666D01*
X165575000Y-110316666D01*
X165541667Y-110250000D01*
X165475000Y-110216666D01*
X165108333Y-110216666D01*
X163958333Y-114650001D02*
X163958333Y-115050001D01*
X163958333Y-114850001D02*
X164658333Y-114850001D01*
X164558333Y-114916667D01*
X164491667Y-114983334D01*
X164458333Y-115050001D01*
X164591667Y-114383334D02*
X164625000Y-114350000D01*
X164658333Y-114283334D01*
X164658333Y-114116667D01*
X164625000Y-114050000D01*
X164591667Y-114016667D01*
X164525000Y-113983334D01*
X164458333Y-113983334D01*
X164358333Y-114016667D01*
X163958333Y-114416667D01*
X163958333Y-113983334D01*
X164691667Y-113183333D02*
X163791667Y-113783333D01*
X163958333Y-112583334D02*
X163958333Y-112983334D01*
X163958333Y-112783334D02*
X164658333Y-112783334D01*
X164558333Y-112850000D01*
X164491667Y-112916667D01*
X164458333Y-112983334D01*
X164658333Y-112350000D02*
X164658333Y-111883333D01*
X163958333Y-112183333D01*
X164425000Y-111150000D02*
X163958333Y-110983333D01*
X164425000Y-110816667D01*
X163958333Y-110183334D02*
X163958333Y-110583334D01*
X163958333Y-110383334D02*
X164658333Y-110383334D01*
X164558333Y-110450000D01*
X164491667Y-110516667D01*
X164458333Y-110583334D01*
D12*
X151000000Y-119250000D03*
X154000000Y-119250000D03*
D13*
X148590000Y-110194000D03*
X148590000Y-111294000D03*
D14*
X163000000Y-131000000D03*
X161500000Y-131000000D03*
D15*
X159250000Y-121750000D03*
X159250000Y-123250000D03*
D14*
X155500000Y-131250000D03*
X154000000Y-131250000D03*
D15*
X151750000Y-121750000D03*
X151750000Y-123250000D03*
D16*
X151250000Y-110000000D03*
X149750000Y-110000000D03*
X160159000Y-116205000D03*
X161659000Y-116205000D03*
X160159000Y-117602000D03*
X161659000Y-117602000D03*
X151245000Y-111506000D03*
X149745000Y-111506000D03*
X160159000Y-118999000D03*
X161659000Y-118999000D03*
X153000000Y-110000000D03*
X154500000Y-110000000D03*
X153000000Y-111500000D03*
X154500000Y-111500000D03*
D17*
X162250000Y-123100000D03*
D18*
X162250000Y-129400000D03*
X159950000Y-129400000D03*
X164550000Y-129400000D03*
D17*
X154750000Y-123100000D03*
D18*
X154750000Y-129400000D03*
X152450000Y-129400000D03*
X157050000Y-129400000D03*
D19*
X147480000Y-129250000D03*
X150020000Y-129250000D03*
D20*
X162600000Y-107000000D03*
D21*
X160060000Y-107000000D03*
X157520000Y-107000000D03*
X154980000Y-107000000D03*
X152440000Y-107000000D03*
X149900000Y-107000000D03*
D22*
X148250000Y-123250000D03*
D23*
X146750000Y-107000000D03*
X165750000Y-107000000D03*
X146750000Y-109000000D03*
X165750000Y-109000000D03*
X148500000Y-132000000D03*
X164000000Y-132000000D03*
X151750000Y-132000000D03*
X160750000Y-132000000D03*
M02*
