M48
INCH,TZ
T1C0.016
T2C0.028
T3C0.079
%
G90
G05
T1
X58550Y-47650
X58563Y-42126
X59250Y-43600
X59250Y-44500
X59300Y-51700
X59350Y-50100
X60050Y-51650
X60700Y-50100
X61200Y-49250
X61220Y-43504
X61516Y-41634
X61700Y-44750
X61700Y-51600
X61800Y-47250
X62000Y-44100
X62050Y-48750
X62585Y-42893
X62585Y-49193
X62650Y-44850
X63000Y-50350
X63400Y-45750
X63450Y-50400
X64050Y-46050
X64250Y-46800
X64778Y-51600
X65300Y-47700
T2
X57776Y-42126
X57776Y-42913
X58465Y-51969
X59744Y-51969
X63287Y-51969
X64567Y-51969
X65256Y-42126
X65256Y-42913
T3
X58366Y-48524
T0
M30
