G04 #@! TF.FileFunction,Copper,L1,Top,Signal*
%FSLAX46Y46*%
G04 Gerber Fmt 4.6, Leading zero omitted, Abs format (unit mm)*
G04 Created by KiCad (PCBNEW 4.0.7-e2-6376~58~ubuntu17.04.1) date Tue Dec 26 12:58:55 2017*
%MOMM*%
%LPD*%
G01*
G04 APERTURE LIST*
%ADD10C,0.100000*%
%ADD11R,1.500000X0.900000*%
%ADD12R,1.168400X1.600200*%
%ADD13R,2.180000X1.600000*%
%ADD14C,2.400000*%
%ADD15C,0.900000*%
%ADD16R,2.500000X1.000000*%
%ADD17R,1.000000X1.800000*%
%ADD18C,0.600000*%
%ADD19C,0.250000*%
%ADD20C,0.180000*%
G04 APERTURE END LIST*
D10*
D11*
X147050000Y-126850000D03*
X147050000Y-130150000D03*
X151950000Y-130150000D03*
X151950000Y-126850000D03*
D12*
X163488000Y-124500000D03*
X165012000Y-124500000D03*
D11*
X153800000Y-128100000D03*
X153800000Y-131400000D03*
X158700000Y-131400000D03*
X158700000Y-128100000D03*
X160550000Y-126850000D03*
X160550000Y-130150000D03*
X165450000Y-130150000D03*
X165450000Y-126850000D03*
D13*
X160850000Y-124450000D03*
X151650000Y-124450000D03*
D14*
X148250000Y-123250000D03*
D15*
X146750000Y-107000000D03*
X165750000Y-107000000D03*
X146750000Y-109000000D03*
X165750000Y-109000000D03*
X148500000Y-132000000D03*
X164000000Y-132000000D03*
X151750000Y-132000000D03*
X160750000Y-132000000D03*
D16*
X148650000Y-106000000D03*
X148650000Y-108000000D03*
X148650000Y-110000000D03*
X148650000Y-112000000D03*
X148650000Y-114000000D03*
X148650000Y-116000000D03*
X148650000Y-118000000D03*
X148650000Y-120000000D03*
D17*
X151250000Y-121500000D03*
X153250000Y-121500000D03*
X155250000Y-121500000D03*
X157250000Y-121500000D03*
X159250000Y-121500000D03*
X161250000Y-121500000D03*
D16*
X163850000Y-120000000D03*
X163850000Y-118000000D03*
X163850000Y-116000000D03*
X163850000Y-114000000D03*
X163850000Y-112000000D03*
X163850000Y-110000000D03*
X163850000Y-108000000D03*
X163850000Y-106000000D03*
D18*
X157607000Y-123825000D03*
X148717000Y-121031000D03*
X158966000Y-108949000D03*
X158966000Y-124951000D03*
X150495000Y-113030000D03*
X159131000Y-113919000D03*
X165862000Y-121158000D03*
X155448000Y-125095000D03*
X150622000Y-131318000D03*
X164536000Y-131064000D03*
X156718000Y-131064000D03*
X148750000Y-107000000D03*
X161163000Y-128016000D03*
X154178000Y-127254000D03*
X156250000Y-105750000D03*
X157480000Y-112014000D03*
X156718000Y-113665000D03*
X161036000Y-116205000D03*
X150749000Y-127254000D03*
X152527000Y-131191000D03*
X156972000Y-120015000D03*
X160020000Y-127889000D03*
X162687000Y-116967000D03*
X150495000Y-110744000D03*
X163195000Y-118872000D03*
X155500000Y-110500000D03*
D19*
X156273500Y-125158500D02*
X157607000Y-123825000D01*
X148717000Y-121031000D02*
X147447000Y-121031000D01*
X155702000Y-125730000D02*
X156273500Y-125158500D01*
X156273500Y-125158500D02*
X156337000Y-125095000D01*
X147574000Y-125730000D02*
X155702000Y-125730000D01*
X146431000Y-124587000D02*
X147574000Y-125730000D01*
X146431000Y-122047000D02*
X146431000Y-124587000D01*
X147447000Y-121031000D02*
X146431000Y-122047000D01*
X148650000Y-120000000D02*
X148650000Y-120964000D01*
X148650000Y-120964000D02*
X148717000Y-121031000D01*
X165750000Y-109000000D02*
X159017000Y-109000000D01*
X159017000Y-109000000D02*
X158966000Y-108949000D01*
X151650000Y-124450000D02*
X155657000Y-124450000D01*
X158966000Y-123808000D02*
X158966000Y-124951000D01*
X158077000Y-122919000D02*
X158966000Y-123808000D01*
X157188000Y-122919000D02*
X158077000Y-122919000D01*
X155657000Y-124450000D02*
X157188000Y-122919000D01*
X151650000Y-124450000D02*
X151650000Y-123123000D01*
X150495000Y-113030000D02*
X152273000Y-114808000D01*
X152235000Y-114770000D02*
X152273000Y-114808000D01*
X152235000Y-122538000D02*
X152235000Y-114770000D01*
X151854000Y-122919000D02*
X152235000Y-122538000D01*
X151650000Y-123123000D02*
X151854000Y-122919000D01*
X146750000Y-109000000D02*
X146750000Y-110500000D01*
X146750000Y-107000000D02*
X146750000Y-109000000D01*
X146750000Y-109000000D02*
X148500000Y-109000000D01*
X151750000Y-132000000D02*
X152500000Y-132000000D01*
X158700000Y-132200000D02*
X158700000Y-131400000D01*
X158750000Y-132250000D02*
X158700000Y-132200000D01*
X152750000Y-132250000D02*
X158750000Y-132250000D01*
X152500000Y-132000000D02*
X152750000Y-132250000D01*
X164000000Y-132000000D02*
X164500000Y-131500000D01*
X164500000Y-131100000D02*
X164536000Y-131064000D01*
X164500000Y-131500000D02*
X164500000Y-131100000D01*
X151950000Y-130150000D02*
X155804000Y-130150000D01*
X151790000Y-130150000D02*
X151950000Y-130150000D01*
X151950000Y-129852000D02*
X151950000Y-130150000D01*
X165750000Y-109000000D02*
X165750000Y-107000000D01*
X165750000Y-109000000D02*
X165750000Y-110000000D01*
X165750000Y-109000000D02*
X164750000Y-109000000D01*
X163850000Y-120000000D02*
X164607000Y-120000000D01*
X159131000Y-113919000D02*
X160020000Y-113030000D01*
X160020000Y-113030000D02*
X165227000Y-113030000D01*
X165227000Y-113030000D02*
X165862000Y-113665000D01*
X165862000Y-113665000D02*
X165862000Y-118745000D01*
X152273000Y-123827000D02*
X151650000Y-124450000D01*
X164704000Y-120000000D02*
X163850000Y-120000000D01*
X151650000Y-124218000D02*
X151650000Y-124450000D01*
X154803000Y-124450000D02*
X151650000Y-124450000D01*
X155448000Y-125095000D02*
X154803000Y-124450000D01*
X164564000Y-131036000D02*
X164536000Y-131064000D01*
X164564000Y-131036000D02*
X165450000Y-130150000D01*
X158700000Y-131400000D02*
X159684000Y-131400000D01*
X159684000Y-131400000D02*
X160020000Y-131064000D01*
X160020000Y-131064000D02*
X164536000Y-131064000D01*
X158700000Y-131400000D02*
X157054000Y-131400000D01*
X157054000Y-131400000D02*
X156718000Y-131064000D01*
D20*
X148650000Y-106000000D02*
X148650000Y-106900000D01*
X148650000Y-106900000D02*
X148750000Y-107000000D01*
D19*
X161163000Y-128016000D02*
X163195000Y-128016000D01*
X163488000Y-127723000D02*
X163488000Y-124500000D01*
X163195000Y-128016000D02*
X163488000Y-127723000D01*
X153800000Y-128100000D02*
X153800000Y-127632000D01*
X153800000Y-127632000D02*
X154178000Y-127254000D01*
X153800000Y-128100000D02*
X156380000Y-128100000D01*
X157630000Y-126850000D02*
X160550000Y-126850000D01*
X156380000Y-128100000D02*
X157630000Y-126850000D01*
X147050000Y-126850000D02*
X148948000Y-126850000D01*
X150198000Y-128100000D02*
X153800000Y-128100000D01*
X148948000Y-126850000D02*
X150198000Y-128100000D01*
D20*
X161500000Y-106000000D02*
X163850000Y-106000000D01*
X161000000Y-105500000D02*
X161500000Y-106000000D01*
X156500000Y-105500000D02*
X161000000Y-105500000D01*
X156250000Y-105750000D02*
X156500000Y-105500000D01*
D19*
X165012000Y-124500000D02*
X165012000Y-122213000D01*
X157480000Y-115697000D02*
X157480000Y-112014000D01*
X162179000Y-120396000D02*
X157480000Y-115697000D01*
X162179000Y-121031000D02*
X162179000Y-120396000D01*
X162560000Y-121412000D02*
X162179000Y-121031000D01*
X164211000Y-121412000D02*
X162560000Y-121412000D01*
X165012000Y-122213000D02*
X164211000Y-121412000D01*
D20*
X160850000Y-124450000D02*
X160850000Y-123385000D01*
X156718000Y-115591000D02*
X156718000Y-113665000D01*
X160274000Y-119147000D02*
X156718000Y-115591000D01*
X160274000Y-122809000D02*
X160274000Y-119147000D01*
X160850000Y-123385000D02*
X160274000Y-122809000D01*
X162098000Y-114000000D02*
X163850000Y-114000000D01*
X160909000Y-115189000D02*
X162098000Y-114000000D01*
X160909000Y-116078000D02*
X160909000Y-115189000D01*
X161036000Y-116205000D02*
X160909000Y-116078000D01*
X153800000Y-131400000D02*
X152736000Y-131400000D01*
X151153000Y-126850000D02*
X151950000Y-126850000D01*
X150749000Y-127254000D02*
X151153000Y-126850000D01*
X152736000Y-131400000D02*
X152527000Y-131191000D01*
X158700000Y-128100000D02*
X159809000Y-128100000D01*
X157970000Y-110000000D02*
X163850000Y-110000000D01*
X155956000Y-112014000D02*
X157970000Y-110000000D01*
X155956000Y-118999000D02*
X155956000Y-112014000D01*
X156972000Y-120015000D02*
X155956000Y-118999000D01*
X159809000Y-128100000D02*
X160020000Y-127889000D01*
X147050000Y-130150000D02*
X149885000Y-130150000D01*
X163141000Y-129159000D02*
X165450000Y-126850000D01*
X150876000Y-129159000D02*
X163141000Y-129159000D01*
X149885000Y-130150000D02*
X150876000Y-129159000D01*
X163850000Y-116820000D02*
X163850000Y-116000000D01*
X163703000Y-116967000D02*
X163850000Y-116820000D01*
X163449000Y-116967000D02*
X163703000Y-116967000D01*
X162687000Y-116967000D02*
X163449000Y-116967000D01*
X150132000Y-110000000D02*
X148650000Y-110000000D01*
X150495000Y-110363000D02*
X150132000Y-110000000D01*
X150495000Y-110744000D02*
X150495000Y-110363000D01*
X163195000Y-118872000D02*
X163850000Y-118217000D01*
X163850000Y-118217000D02*
X163850000Y-118000000D01*
X163850000Y-108000000D02*
X162750000Y-108000000D01*
X162750000Y-108000000D02*
X160750000Y-106000000D01*
X160750000Y-106000000D02*
X157500000Y-106000000D01*
X157500000Y-106000000D02*
X156750000Y-106750000D01*
X156750000Y-106750000D02*
X156750000Y-108750000D01*
X156750000Y-108750000D02*
X155500000Y-110000000D01*
X155500000Y-110000000D02*
X155500000Y-110500000D01*
G36*
X166085000Y-129360000D02*
X165745000Y-129360000D01*
X165660000Y-129445000D01*
X165660000Y-129940000D01*
X165680000Y-129940000D01*
X165680000Y-130360000D01*
X165660000Y-130360000D01*
X165660000Y-130855000D01*
X165734051Y-130929051D01*
X164785350Y-131877752D01*
X164752543Y-131712820D01*
X164635825Y-131661159D01*
X164296985Y-132000000D01*
X164311127Y-132014142D01*
X164014142Y-132311127D01*
X164000000Y-132296985D01*
X163985858Y-132311127D01*
X163688873Y-132014142D01*
X163703015Y-132000000D01*
X163364175Y-131661159D01*
X163247457Y-131712820D01*
X163194842Y-132022666D01*
X163247457Y-132287180D01*
X163355497Y-132335000D01*
X161394503Y-132335000D01*
X161502543Y-132287180D01*
X161555158Y-131977334D01*
X161502543Y-131712820D01*
X161385825Y-131661159D01*
X161046985Y-132000000D01*
X161061127Y-132014142D01*
X160764142Y-132311127D01*
X160750000Y-132296985D01*
X160735858Y-132311127D01*
X160438873Y-132014142D01*
X160453015Y-132000000D01*
X160114175Y-131661159D01*
X159997457Y-131712820D01*
X159944842Y-132022666D01*
X159997457Y-132287180D01*
X160105497Y-132335000D01*
X152394503Y-132335000D01*
X152502543Y-132287180D01*
X152555158Y-131977334D01*
X152526050Y-131830999D01*
X152653745Y-131831111D01*
X152682290Y-131819316D01*
X152703340Y-131823503D01*
X152703340Y-131850000D01*
X152727048Y-131975996D01*
X152801511Y-132091716D01*
X152915130Y-132169348D01*
X153050000Y-132196660D01*
X154550000Y-132196660D01*
X154675996Y-132172952D01*
X154791716Y-132098489D01*
X154869348Y-131984870D01*
X154896660Y-131850000D01*
X154896660Y-131695000D01*
X157610000Y-131695000D01*
X157610000Y-131917630D01*
X157661762Y-132042595D01*
X157757406Y-132138238D01*
X157882370Y-132190000D01*
X158405000Y-132190000D01*
X158490000Y-132105000D01*
X158490000Y-131610000D01*
X158910000Y-131610000D01*
X158910000Y-132105000D01*
X158995000Y-132190000D01*
X159517630Y-132190000D01*
X159642594Y-132138238D01*
X159738238Y-132042595D01*
X159790000Y-131917630D01*
X159790000Y-131695000D01*
X159705000Y-131610000D01*
X158910000Y-131610000D01*
X158490000Y-131610000D01*
X157695000Y-131610000D01*
X157610000Y-131695000D01*
X154896660Y-131695000D01*
X154896660Y-131364175D01*
X160411159Y-131364175D01*
X160750000Y-131703015D01*
X161088841Y-131364175D01*
X163661159Y-131364175D01*
X164000000Y-131703015D01*
X164338841Y-131364175D01*
X164287180Y-131247457D01*
X163977334Y-131194842D01*
X163712820Y-131247457D01*
X163661159Y-131364175D01*
X161088841Y-131364175D01*
X161037180Y-131247457D01*
X160727334Y-131194842D01*
X160462820Y-131247457D01*
X160411159Y-131364175D01*
X154896660Y-131364175D01*
X154896660Y-130950000D01*
X154883935Y-130882370D01*
X157610000Y-130882370D01*
X157610000Y-131105000D01*
X157695000Y-131190000D01*
X158490000Y-131190000D01*
X158490000Y-130695000D01*
X158405000Y-130610000D01*
X157882370Y-130610000D01*
X157757406Y-130661762D01*
X157661762Y-130757405D01*
X157610000Y-130882370D01*
X154883935Y-130882370D01*
X154872952Y-130824004D01*
X154798489Y-130708284D01*
X154684870Y-130630652D01*
X154550000Y-130603340D01*
X153050000Y-130603340D01*
X153040000Y-130605222D01*
X153040000Y-130445000D01*
X152955000Y-130360000D01*
X152160000Y-130360000D01*
X152160000Y-130380000D01*
X151740000Y-130380000D01*
X151740000Y-130360000D01*
X150945000Y-130360000D01*
X150860000Y-130445000D01*
X150860000Y-130667630D01*
X150911762Y-130792595D01*
X151007406Y-130888238D01*
X151132370Y-130940000D01*
X151655000Y-130940000D01*
X151739998Y-130855002D01*
X151739998Y-130940000D01*
X151938243Y-130940000D01*
X151887112Y-131063138D01*
X151886973Y-131221950D01*
X151727334Y-131194842D01*
X151462820Y-131247457D01*
X151411159Y-131364175D01*
X151750000Y-131703015D01*
X151764142Y-131688873D01*
X152061127Y-131985858D01*
X152046985Y-132000000D01*
X152061127Y-132014142D01*
X151764142Y-132311127D01*
X151750000Y-132296985D01*
X151735858Y-132311127D01*
X151438873Y-132014142D01*
X151453015Y-132000000D01*
X151114175Y-131661159D01*
X150997457Y-131712820D01*
X150944842Y-132022666D01*
X150997457Y-132287180D01*
X151105497Y-132335000D01*
X149144503Y-132335000D01*
X149252543Y-132287180D01*
X149305158Y-131977334D01*
X149252543Y-131712820D01*
X149135825Y-131661159D01*
X148796985Y-132000000D01*
X148811127Y-132014142D01*
X148514142Y-132311127D01*
X148500000Y-132296985D01*
X148485858Y-132311127D01*
X148188873Y-132014142D01*
X148203015Y-132000000D01*
X147864175Y-131661159D01*
X147747457Y-131712820D01*
X147718753Y-131881855D01*
X147201073Y-131364175D01*
X148161159Y-131364175D01*
X148500000Y-131703015D01*
X148838841Y-131364175D01*
X148787180Y-131247457D01*
X148477334Y-131194842D01*
X148212820Y-131247457D01*
X148161159Y-131364175D01*
X147201073Y-131364175D01*
X146783558Y-130946660D01*
X147800000Y-130946660D01*
X147925996Y-130922952D01*
X148041716Y-130848489D01*
X148119348Y-130734870D01*
X148146660Y-130600000D01*
X148146660Y-130580000D01*
X149885000Y-130580000D01*
X150049554Y-130547268D01*
X150189056Y-130454056D01*
X150860000Y-129783112D01*
X150860000Y-129855000D01*
X150945000Y-129940000D01*
X151740000Y-129940000D01*
X151740000Y-129920000D01*
X152160000Y-129920000D01*
X152160000Y-129940000D01*
X152955000Y-129940000D01*
X153040000Y-129855000D01*
X153040000Y-129632370D01*
X153022036Y-129589000D01*
X159475818Y-129589000D01*
X159453340Y-129700000D01*
X159453340Y-130600000D01*
X159455222Y-130610000D01*
X158995000Y-130610000D01*
X158910000Y-130695000D01*
X158910000Y-131190000D01*
X159705000Y-131190000D01*
X159790000Y-131105000D01*
X159790000Y-130944635D01*
X159800000Y-130946660D01*
X161300000Y-130946660D01*
X161425996Y-130922952D01*
X161541716Y-130848489D01*
X161619348Y-130734870D01*
X161646660Y-130600000D01*
X161646660Y-130445000D01*
X164360000Y-130445000D01*
X164360000Y-130667630D01*
X164411762Y-130792595D01*
X164507406Y-130888238D01*
X164632370Y-130940000D01*
X165155000Y-130940000D01*
X165240000Y-130855000D01*
X165240000Y-130360000D01*
X164445000Y-130360000D01*
X164360000Y-130445000D01*
X161646660Y-130445000D01*
X161646660Y-129700000D01*
X161633935Y-129632370D01*
X164360000Y-129632370D01*
X164360000Y-129855000D01*
X164445000Y-129940000D01*
X165240000Y-129940000D01*
X165240000Y-129445000D01*
X165155000Y-129360000D01*
X164632370Y-129360000D01*
X164507406Y-129411762D01*
X164411762Y-129507405D01*
X164360000Y-129632370D01*
X161633935Y-129632370D01*
X161625774Y-129589000D01*
X163141000Y-129589000D01*
X163305554Y-129556268D01*
X163445056Y-129463056D01*
X165261452Y-127646660D01*
X166085000Y-127646660D01*
X166085000Y-129360000D01*
X166085000Y-129360000D01*
G37*
X166085000Y-129360000D02*
X165745000Y-129360000D01*
X165660000Y-129445000D01*
X165660000Y-129940000D01*
X165680000Y-129940000D01*
X165680000Y-130360000D01*
X165660000Y-130360000D01*
X165660000Y-130855000D01*
X165734051Y-130929051D01*
X164785350Y-131877752D01*
X164752543Y-131712820D01*
X164635825Y-131661159D01*
X164296985Y-132000000D01*
X164311127Y-132014142D01*
X164014142Y-132311127D01*
X164000000Y-132296985D01*
X163985858Y-132311127D01*
X163688873Y-132014142D01*
X163703015Y-132000000D01*
X163364175Y-131661159D01*
X163247457Y-131712820D01*
X163194842Y-132022666D01*
X163247457Y-132287180D01*
X163355497Y-132335000D01*
X161394503Y-132335000D01*
X161502543Y-132287180D01*
X161555158Y-131977334D01*
X161502543Y-131712820D01*
X161385825Y-131661159D01*
X161046985Y-132000000D01*
X161061127Y-132014142D01*
X160764142Y-132311127D01*
X160750000Y-132296985D01*
X160735858Y-132311127D01*
X160438873Y-132014142D01*
X160453015Y-132000000D01*
X160114175Y-131661159D01*
X159997457Y-131712820D01*
X159944842Y-132022666D01*
X159997457Y-132287180D01*
X160105497Y-132335000D01*
X152394503Y-132335000D01*
X152502543Y-132287180D01*
X152555158Y-131977334D01*
X152526050Y-131830999D01*
X152653745Y-131831111D01*
X152682290Y-131819316D01*
X152703340Y-131823503D01*
X152703340Y-131850000D01*
X152727048Y-131975996D01*
X152801511Y-132091716D01*
X152915130Y-132169348D01*
X153050000Y-132196660D01*
X154550000Y-132196660D01*
X154675996Y-132172952D01*
X154791716Y-132098489D01*
X154869348Y-131984870D01*
X154896660Y-131850000D01*
X154896660Y-131695000D01*
X157610000Y-131695000D01*
X157610000Y-131917630D01*
X157661762Y-132042595D01*
X157757406Y-132138238D01*
X157882370Y-132190000D01*
X158405000Y-132190000D01*
X158490000Y-132105000D01*
X158490000Y-131610000D01*
X158910000Y-131610000D01*
X158910000Y-132105000D01*
X158995000Y-132190000D01*
X159517630Y-132190000D01*
X159642594Y-132138238D01*
X159738238Y-132042595D01*
X159790000Y-131917630D01*
X159790000Y-131695000D01*
X159705000Y-131610000D01*
X158910000Y-131610000D01*
X158490000Y-131610000D01*
X157695000Y-131610000D01*
X157610000Y-131695000D01*
X154896660Y-131695000D01*
X154896660Y-131364175D01*
X160411159Y-131364175D01*
X160750000Y-131703015D01*
X161088841Y-131364175D01*
X163661159Y-131364175D01*
X164000000Y-131703015D01*
X164338841Y-131364175D01*
X164287180Y-131247457D01*
X163977334Y-131194842D01*
X163712820Y-131247457D01*
X163661159Y-131364175D01*
X161088841Y-131364175D01*
X161037180Y-131247457D01*
X160727334Y-131194842D01*
X160462820Y-131247457D01*
X160411159Y-131364175D01*
X154896660Y-131364175D01*
X154896660Y-130950000D01*
X154883935Y-130882370D01*
X157610000Y-130882370D01*
X157610000Y-131105000D01*
X157695000Y-131190000D01*
X158490000Y-131190000D01*
X158490000Y-130695000D01*
X158405000Y-130610000D01*
X157882370Y-130610000D01*
X157757406Y-130661762D01*
X157661762Y-130757405D01*
X157610000Y-130882370D01*
X154883935Y-130882370D01*
X154872952Y-130824004D01*
X154798489Y-130708284D01*
X154684870Y-130630652D01*
X154550000Y-130603340D01*
X153050000Y-130603340D01*
X153040000Y-130605222D01*
X153040000Y-130445000D01*
X152955000Y-130360000D01*
X152160000Y-130360000D01*
X152160000Y-130380000D01*
X151740000Y-130380000D01*
X151740000Y-130360000D01*
X150945000Y-130360000D01*
X150860000Y-130445000D01*
X150860000Y-130667630D01*
X150911762Y-130792595D01*
X151007406Y-130888238D01*
X151132370Y-130940000D01*
X151655000Y-130940000D01*
X151739998Y-130855002D01*
X151739998Y-130940000D01*
X151938243Y-130940000D01*
X151887112Y-131063138D01*
X151886973Y-131221950D01*
X151727334Y-131194842D01*
X151462820Y-131247457D01*
X151411159Y-131364175D01*
X151750000Y-131703015D01*
X151764142Y-131688873D01*
X152061127Y-131985858D01*
X152046985Y-132000000D01*
X152061127Y-132014142D01*
X151764142Y-132311127D01*
X151750000Y-132296985D01*
X151735858Y-132311127D01*
X151438873Y-132014142D01*
X151453015Y-132000000D01*
X151114175Y-131661159D01*
X150997457Y-131712820D01*
X150944842Y-132022666D01*
X150997457Y-132287180D01*
X151105497Y-132335000D01*
X149144503Y-132335000D01*
X149252543Y-132287180D01*
X149305158Y-131977334D01*
X149252543Y-131712820D01*
X149135825Y-131661159D01*
X148796985Y-132000000D01*
X148811127Y-132014142D01*
X148514142Y-132311127D01*
X148500000Y-132296985D01*
X148485858Y-132311127D01*
X148188873Y-132014142D01*
X148203015Y-132000000D01*
X147864175Y-131661159D01*
X147747457Y-131712820D01*
X147718753Y-131881855D01*
X147201073Y-131364175D01*
X148161159Y-131364175D01*
X148500000Y-131703015D01*
X148838841Y-131364175D01*
X148787180Y-131247457D01*
X148477334Y-131194842D01*
X148212820Y-131247457D01*
X148161159Y-131364175D01*
X147201073Y-131364175D01*
X146783558Y-130946660D01*
X147800000Y-130946660D01*
X147925996Y-130922952D01*
X148041716Y-130848489D01*
X148119348Y-130734870D01*
X148146660Y-130600000D01*
X148146660Y-130580000D01*
X149885000Y-130580000D01*
X150049554Y-130547268D01*
X150189056Y-130454056D01*
X150860000Y-129783112D01*
X150860000Y-129855000D01*
X150945000Y-129940000D01*
X151740000Y-129940000D01*
X151740000Y-129920000D01*
X152160000Y-129920000D01*
X152160000Y-129940000D01*
X152955000Y-129940000D01*
X153040000Y-129855000D01*
X153040000Y-129632370D01*
X153022036Y-129589000D01*
X159475818Y-129589000D01*
X159453340Y-129700000D01*
X159453340Y-130600000D01*
X159455222Y-130610000D01*
X158995000Y-130610000D01*
X158910000Y-130695000D01*
X158910000Y-131190000D01*
X159705000Y-131190000D01*
X159790000Y-131105000D01*
X159790000Y-130944635D01*
X159800000Y-130946660D01*
X161300000Y-130946660D01*
X161425996Y-130922952D01*
X161541716Y-130848489D01*
X161619348Y-130734870D01*
X161646660Y-130600000D01*
X161646660Y-130445000D01*
X164360000Y-130445000D01*
X164360000Y-130667630D01*
X164411762Y-130792595D01*
X164507406Y-130888238D01*
X164632370Y-130940000D01*
X165155000Y-130940000D01*
X165240000Y-130855000D01*
X165240000Y-130360000D01*
X164445000Y-130360000D01*
X164360000Y-130445000D01*
X161646660Y-130445000D01*
X161646660Y-129700000D01*
X161633935Y-129632370D01*
X164360000Y-129632370D01*
X164360000Y-129855000D01*
X164445000Y-129940000D01*
X165240000Y-129940000D01*
X165240000Y-129445000D01*
X165155000Y-129360000D01*
X164632370Y-129360000D01*
X164507406Y-129411762D01*
X164411762Y-129507405D01*
X164360000Y-129632370D01*
X161633935Y-129632370D01*
X161625774Y-129589000D01*
X163141000Y-129589000D01*
X163305554Y-129556268D01*
X163445056Y-129463056D01*
X165261452Y-127646660D01*
X166085000Y-127646660D01*
X166085000Y-129360000D01*
G36*
X166085000Y-126053340D02*
X164700000Y-126053340D01*
X164574004Y-126077048D01*
X164458284Y-126151511D01*
X164380652Y-126265130D01*
X164353340Y-126400000D01*
X164353340Y-127300000D01*
X164359445Y-127332443D01*
X163949056Y-127742832D01*
X163953001Y-127723000D01*
X163953000Y-127722995D01*
X163953000Y-125646760D01*
X164072200Y-125646760D01*
X164198196Y-125623052D01*
X164249700Y-125589910D01*
X164292930Y-125619448D01*
X164427800Y-125646760D01*
X165596200Y-125646760D01*
X165722196Y-125623052D01*
X165837916Y-125548589D01*
X165915548Y-125434970D01*
X165942860Y-125300100D01*
X165942860Y-123699900D01*
X165919152Y-123573904D01*
X165844689Y-123458184D01*
X165731070Y-123380552D01*
X165596200Y-123353240D01*
X165477000Y-123353240D01*
X165477000Y-122213000D01*
X165441604Y-122035052D01*
X165340805Y-121884195D01*
X164539805Y-121083195D01*
X164388948Y-120982396D01*
X164211000Y-120947000D01*
X162752609Y-120947000D01*
X162645610Y-120840000D01*
X163555000Y-120840000D01*
X163640000Y-120755000D01*
X163640000Y-120210000D01*
X164060000Y-120210000D01*
X164060000Y-120755000D01*
X164145000Y-120840000D01*
X165167630Y-120840000D01*
X165292594Y-120788238D01*
X165388238Y-120692595D01*
X165440000Y-120567630D01*
X165440000Y-120295000D01*
X165355000Y-120210000D01*
X164060000Y-120210000D01*
X163640000Y-120210000D01*
X163620000Y-120210000D01*
X163620000Y-119790000D01*
X163640000Y-119790000D01*
X163640000Y-119332084D01*
X163727235Y-119245000D01*
X164060000Y-119245000D01*
X164060000Y-119790000D01*
X165355000Y-119790000D01*
X165440000Y-119705000D01*
X165440000Y-119432370D01*
X165388238Y-119307405D01*
X165292594Y-119211762D01*
X165167630Y-119160000D01*
X164145000Y-119160000D01*
X164060000Y-119245000D01*
X163727235Y-119245000D01*
X163737249Y-119235004D01*
X163834888Y-118999862D01*
X163835022Y-118846660D01*
X165100000Y-118846660D01*
X165225996Y-118822952D01*
X165341716Y-118748489D01*
X165419348Y-118634870D01*
X165446660Y-118500000D01*
X165446660Y-117500000D01*
X165422952Y-117374004D01*
X165348489Y-117258284D01*
X165234870Y-117180652D01*
X165100000Y-117153340D01*
X164124772Y-117153340D01*
X164154056Y-117124056D01*
X164247268Y-116984554D01*
X164274697Y-116846660D01*
X165100000Y-116846660D01*
X165225996Y-116822952D01*
X165341716Y-116748489D01*
X165419348Y-116634870D01*
X165446660Y-116500000D01*
X165446660Y-115500000D01*
X165422952Y-115374004D01*
X165348489Y-115258284D01*
X165234870Y-115180652D01*
X165100000Y-115153340D01*
X162600000Y-115153340D01*
X162474004Y-115177048D01*
X162358284Y-115251511D01*
X162280652Y-115365130D01*
X162253340Y-115500000D01*
X162253340Y-116495596D01*
X162144751Y-116603996D01*
X162047112Y-116839138D01*
X162046889Y-117093745D01*
X162144118Y-117329057D01*
X162263699Y-117448847D01*
X162253340Y-117500000D01*
X162253340Y-118500000D01*
X162277048Y-118625996D01*
X162351511Y-118741716D01*
X162465130Y-118819348D01*
X162555030Y-118837553D01*
X162554889Y-118998745D01*
X162621518Y-119160000D01*
X162532370Y-119160000D01*
X162407406Y-119211762D01*
X162311762Y-119307405D01*
X162260000Y-119432370D01*
X162260000Y-119705000D01*
X162344998Y-119789998D01*
X162260000Y-119789998D01*
X162260000Y-119819391D01*
X158772355Y-116331745D01*
X160395889Y-116331745D01*
X160493118Y-116567057D01*
X160672996Y-116747249D01*
X160908138Y-116844888D01*
X161162745Y-116845111D01*
X161398057Y-116747882D01*
X161578249Y-116568004D01*
X161675888Y-116332862D01*
X161676111Y-116078255D01*
X161578882Y-115842943D01*
X161399004Y-115662751D01*
X161339000Y-115637835D01*
X161339000Y-115367112D01*
X162253340Y-114452772D01*
X162253340Y-114500000D01*
X162277048Y-114625996D01*
X162351511Y-114741716D01*
X162465130Y-114819348D01*
X162600000Y-114846660D01*
X165100000Y-114846660D01*
X165225996Y-114822952D01*
X165341716Y-114748489D01*
X165419348Y-114634870D01*
X165446660Y-114500000D01*
X165446660Y-113500000D01*
X165422952Y-113374004D01*
X165348489Y-113258284D01*
X165234870Y-113180652D01*
X165100000Y-113153340D01*
X162600000Y-113153340D01*
X162474004Y-113177048D01*
X162358284Y-113251511D01*
X162280652Y-113365130D01*
X162253340Y-113500000D01*
X162253340Y-113570000D01*
X162098000Y-113570000D01*
X161933446Y-113602732D01*
X161793944Y-113695944D01*
X160604944Y-114884944D01*
X160511732Y-115024446D01*
X160479000Y-115189000D01*
X160479000Y-115877521D01*
X160396112Y-116077138D01*
X160395889Y-116331745D01*
X158772355Y-116331745D01*
X157945000Y-115504390D01*
X157945000Y-112454118D01*
X158022249Y-112377004D01*
X158119888Y-112141862D01*
X158120111Y-111887255D01*
X158022882Y-111651943D01*
X157871204Y-111500000D01*
X162253340Y-111500000D01*
X162253340Y-112500000D01*
X162277048Y-112625996D01*
X162351511Y-112741716D01*
X162465130Y-112819348D01*
X162600000Y-112846660D01*
X165100000Y-112846660D01*
X165225996Y-112822952D01*
X165341716Y-112748489D01*
X165419348Y-112634870D01*
X165446660Y-112500000D01*
X165446660Y-111500000D01*
X165422952Y-111374004D01*
X165348489Y-111258284D01*
X165234870Y-111180652D01*
X165100000Y-111153340D01*
X162600000Y-111153340D01*
X162474004Y-111177048D01*
X162358284Y-111251511D01*
X162280652Y-111365130D01*
X162253340Y-111500000D01*
X157871204Y-111500000D01*
X157843004Y-111471751D01*
X157607862Y-111374112D01*
X157353255Y-111373889D01*
X157117943Y-111471118D01*
X156937751Y-111650996D01*
X156840112Y-111886138D01*
X156839889Y-112140745D01*
X156937118Y-112376057D01*
X157015000Y-112454075D01*
X157015000Y-113095344D01*
X156845862Y-113025112D01*
X156591255Y-113024889D01*
X156386000Y-113109699D01*
X156386000Y-112192112D01*
X158148112Y-110430000D01*
X162253340Y-110430000D01*
X162253340Y-110500000D01*
X162277048Y-110625996D01*
X162351511Y-110741716D01*
X162465130Y-110819348D01*
X162600000Y-110846660D01*
X165100000Y-110846660D01*
X165225996Y-110822952D01*
X165341716Y-110748489D01*
X165419348Y-110634870D01*
X165446660Y-110500000D01*
X165446660Y-109716033D01*
X165462820Y-109752543D01*
X165772666Y-109805158D01*
X166037180Y-109752543D01*
X166085000Y-109644503D01*
X166085000Y-126053340D01*
X166085000Y-126053340D01*
G37*
X166085000Y-126053340D02*
X164700000Y-126053340D01*
X164574004Y-126077048D01*
X164458284Y-126151511D01*
X164380652Y-126265130D01*
X164353340Y-126400000D01*
X164353340Y-127300000D01*
X164359445Y-127332443D01*
X163949056Y-127742832D01*
X163953001Y-127723000D01*
X163953000Y-127722995D01*
X163953000Y-125646760D01*
X164072200Y-125646760D01*
X164198196Y-125623052D01*
X164249700Y-125589910D01*
X164292930Y-125619448D01*
X164427800Y-125646760D01*
X165596200Y-125646760D01*
X165722196Y-125623052D01*
X165837916Y-125548589D01*
X165915548Y-125434970D01*
X165942860Y-125300100D01*
X165942860Y-123699900D01*
X165919152Y-123573904D01*
X165844689Y-123458184D01*
X165731070Y-123380552D01*
X165596200Y-123353240D01*
X165477000Y-123353240D01*
X165477000Y-122213000D01*
X165441604Y-122035052D01*
X165340805Y-121884195D01*
X164539805Y-121083195D01*
X164388948Y-120982396D01*
X164211000Y-120947000D01*
X162752609Y-120947000D01*
X162645610Y-120840000D01*
X163555000Y-120840000D01*
X163640000Y-120755000D01*
X163640000Y-120210000D01*
X164060000Y-120210000D01*
X164060000Y-120755000D01*
X164145000Y-120840000D01*
X165167630Y-120840000D01*
X165292594Y-120788238D01*
X165388238Y-120692595D01*
X165440000Y-120567630D01*
X165440000Y-120295000D01*
X165355000Y-120210000D01*
X164060000Y-120210000D01*
X163640000Y-120210000D01*
X163620000Y-120210000D01*
X163620000Y-119790000D01*
X163640000Y-119790000D01*
X163640000Y-119332084D01*
X163727235Y-119245000D01*
X164060000Y-119245000D01*
X164060000Y-119790000D01*
X165355000Y-119790000D01*
X165440000Y-119705000D01*
X165440000Y-119432370D01*
X165388238Y-119307405D01*
X165292594Y-119211762D01*
X165167630Y-119160000D01*
X164145000Y-119160000D01*
X164060000Y-119245000D01*
X163727235Y-119245000D01*
X163737249Y-119235004D01*
X163834888Y-118999862D01*
X163835022Y-118846660D01*
X165100000Y-118846660D01*
X165225996Y-118822952D01*
X165341716Y-118748489D01*
X165419348Y-118634870D01*
X165446660Y-118500000D01*
X165446660Y-117500000D01*
X165422952Y-117374004D01*
X165348489Y-117258284D01*
X165234870Y-117180652D01*
X165100000Y-117153340D01*
X164124772Y-117153340D01*
X164154056Y-117124056D01*
X164247268Y-116984554D01*
X164274697Y-116846660D01*
X165100000Y-116846660D01*
X165225996Y-116822952D01*
X165341716Y-116748489D01*
X165419348Y-116634870D01*
X165446660Y-116500000D01*
X165446660Y-115500000D01*
X165422952Y-115374004D01*
X165348489Y-115258284D01*
X165234870Y-115180652D01*
X165100000Y-115153340D01*
X162600000Y-115153340D01*
X162474004Y-115177048D01*
X162358284Y-115251511D01*
X162280652Y-115365130D01*
X162253340Y-115500000D01*
X162253340Y-116495596D01*
X162144751Y-116603996D01*
X162047112Y-116839138D01*
X162046889Y-117093745D01*
X162144118Y-117329057D01*
X162263699Y-117448847D01*
X162253340Y-117500000D01*
X162253340Y-118500000D01*
X162277048Y-118625996D01*
X162351511Y-118741716D01*
X162465130Y-118819348D01*
X162555030Y-118837553D01*
X162554889Y-118998745D01*
X162621518Y-119160000D01*
X162532370Y-119160000D01*
X162407406Y-119211762D01*
X162311762Y-119307405D01*
X162260000Y-119432370D01*
X162260000Y-119705000D01*
X162344998Y-119789998D01*
X162260000Y-119789998D01*
X162260000Y-119819391D01*
X158772355Y-116331745D01*
X160395889Y-116331745D01*
X160493118Y-116567057D01*
X160672996Y-116747249D01*
X160908138Y-116844888D01*
X161162745Y-116845111D01*
X161398057Y-116747882D01*
X161578249Y-116568004D01*
X161675888Y-116332862D01*
X161676111Y-116078255D01*
X161578882Y-115842943D01*
X161399004Y-115662751D01*
X161339000Y-115637835D01*
X161339000Y-115367112D01*
X162253340Y-114452772D01*
X162253340Y-114500000D01*
X162277048Y-114625996D01*
X162351511Y-114741716D01*
X162465130Y-114819348D01*
X162600000Y-114846660D01*
X165100000Y-114846660D01*
X165225996Y-114822952D01*
X165341716Y-114748489D01*
X165419348Y-114634870D01*
X165446660Y-114500000D01*
X165446660Y-113500000D01*
X165422952Y-113374004D01*
X165348489Y-113258284D01*
X165234870Y-113180652D01*
X165100000Y-113153340D01*
X162600000Y-113153340D01*
X162474004Y-113177048D01*
X162358284Y-113251511D01*
X162280652Y-113365130D01*
X162253340Y-113500000D01*
X162253340Y-113570000D01*
X162098000Y-113570000D01*
X161933446Y-113602732D01*
X161793944Y-113695944D01*
X160604944Y-114884944D01*
X160511732Y-115024446D01*
X160479000Y-115189000D01*
X160479000Y-115877521D01*
X160396112Y-116077138D01*
X160395889Y-116331745D01*
X158772355Y-116331745D01*
X157945000Y-115504390D01*
X157945000Y-112454118D01*
X158022249Y-112377004D01*
X158119888Y-112141862D01*
X158120111Y-111887255D01*
X158022882Y-111651943D01*
X157871204Y-111500000D01*
X162253340Y-111500000D01*
X162253340Y-112500000D01*
X162277048Y-112625996D01*
X162351511Y-112741716D01*
X162465130Y-112819348D01*
X162600000Y-112846660D01*
X165100000Y-112846660D01*
X165225996Y-112822952D01*
X165341716Y-112748489D01*
X165419348Y-112634870D01*
X165446660Y-112500000D01*
X165446660Y-111500000D01*
X165422952Y-111374004D01*
X165348489Y-111258284D01*
X165234870Y-111180652D01*
X165100000Y-111153340D01*
X162600000Y-111153340D01*
X162474004Y-111177048D01*
X162358284Y-111251511D01*
X162280652Y-111365130D01*
X162253340Y-111500000D01*
X157871204Y-111500000D01*
X157843004Y-111471751D01*
X157607862Y-111374112D01*
X157353255Y-111373889D01*
X157117943Y-111471118D01*
X156937751Y-111650996D01*
X156840112Y-111886138D01*
X156839889Y-112140745D01*
X156937118Y-112376057D01*
X157015000Y-112454075D01*
X157015000Y-113095344D01*
X156845862Y-113025112D01*
X156591255Y-113024889D01*
X156386000Y-113109699D01*
X156386000Y-112192112D01*
X158148112Y-110430000D01*
X162253340Y-110430000D01*
X162253340Y-110500000D01*
X162277048Y-110625996D01*
X162351511Y-110741716D01*
X162465130Y-110819348D01*
X162600000Y-110846660D01*
X165100000Y-110846660D01*
X165225996Y-110822952D01*
X165341716Y-110748489D01*
X165419348Y-110634870D01*
X165446660Y-110500000D01*
X165446660Y-109716033D01*
X165462820Y-109752543D01*
X165772666Y-109805158D01*
X166037180Y-109752543D01*
X166085000Y-109644503D01*
X166085000Y-126053340D01*
G36*
X155610112Y-105622138D02*
X155609889Y-105876745D01*
X155707118Y-106112057D01*
X155886996Y-106292249D01*
X156122138Y-106389888D01*
X156376745Y-106390111D01*
X156589816Y-106302072D01*
X156445944Y-106445944D01*
X156352732Y-106585446D01*
X156320000Y-106750000D01*
X156320000Y-108571888D01*
X155195944Y-109695944D01*
X155102732Y-109835446D01*
X155070000Y-110000000D01*
X155070000Y-110024943D01*
X154957751Y-110136996D01*
X154860112Y-110372138D01*
X154859889Y-110626745D01*
X154957118Y-110862057D01*
X155136996Y-111042249D01*
X155372138Y-111139888D01*
X155626745Y-111140111D01*
X155862057Y-111042882D01*
X156042249Y-110863004D01*
X156139888Y-110627862D01*
X156140111Y-110373255D01*
X156042882Y-110137943D01*
X156006557Y-110101555D01*
X157054056Y-109054056D01*
X157147268Y-108914554D01*
X157180000Y-108750000D01*
X157180000Y-106928112D01*
X157678112Y-106430000D01*
X160571888Y-106430000D01*
X162253340Y-108111452D01*
X162253340Y-108500000D01*
X162277048Y-108625996D01*
X162351511Y-108741716D01*
X162465130Y-108819348D01*
X162600000Y-108846660D01*
X164974730Y-108846660D01*
X164944842Y-109022666D01*
X164970835Y-109153340D01*
X162600000Y-109153340D01*
X162474004Y-109177048D01*
X162358284Y-109251511D01*
X162280652Y-109365130D01*
X162253340Y-109500000D01*
X162253340Y-109570000D01*
X157970000Y-109570000D01*
X157805446Y-109602732D01*
X157665944Y-109695944D01*
X155651944Y-111709944D01*
X155558732Y-111849446D01*
X155526000Y-112014000D01*
X155526000Y-118999000D01*
X155558732Y-119163554D01*
X155651944Y-119303056D01*
X156332028Y-119983140D01*
X156331889Y-120141745D01*
X156429118Y-120377057D01*
X156465754Y-120413757D01*
X156430652Y-120465130D01*
X156403340Y-120600000D01*
X156403340Y-122400000D01*
X156427048Y-122525996D01*
X156501511Y-122641716D01*
X156615130Y-122719348D01*
X156750000Y-122746660D01*
X157750000Y-122746660D01*
X157875996Y-122722952D01*
X157991716Y-122648489D01*
X158069348Y-122534870D01*
X158096660Y-122400000D01*
X158096660Y-120600000D01*
X158072952Y-120474004D01*
X157998489Y-120358284D01*
X157884870Y-120280652D01*
X157750000Y-120253340D01*
X157566014Y-120253340D01*
X157611888Y-120142862D01*
X157612111Y-119888255D01*
X157514882Y-119652943D01*
X157335004Y-119472751D01*
X157099862Y-119375112D01*
X156940084Y-119374972D01*
X156386000Y-118820888D01*
X156386000Y-115853235D01*
X156413944Y-115895056D01*
X159844000Y-119325112D01*
X159844000Y-120272376D01*
X159750000Y-120253340D01*
X158750000Y-120253340D01*
X158624004Y-120277048D01*
X158508284Y-120351511D01*
X158430652Y-120465130D01*
X158403340Y-120600000D01*
X158403340Y-122400000D01*
X158427048Y-122525996D01*
X158501511Y-122641716D01*
X158615130Y-122719348D01*
X158750000Y-122746660D01*
X159750000Y-122746660D01*
X159844000Y-122728973D01*
X159844000Y-122809000D01*
X159876732Y-122973554D01*
X159969944Y-123113056D01*
X160160228Y-123303340D01*
X159760000Y-123303340D01*
X159634004Y-123327048D01*
X159518284Y-123401511D01*
X159440652Y-123515130D01*
X159413340Y-123650000D01*
X159413340Y-125250000D01*
X159437048Y-125375996D01*
X159511511Y-125491716D01*
X159625130Y-125569348D01*
X159760000Y-125596660D01*
X161940000Y-125596660D01*
X162065996Y-125572952D01*
X162181716Y-125498489D01*
X162259348Y-125384870D01*
X162286660Y-125250000D01*
X162286660Y-123650000D01*
X162262952Y-123524004D01*
X162188489Y-123408284D01*
X162074870Y-123330652D01*
X161940000Y-123303340D01*
X161263757Y-123303340D01*
X161247268Y-123220446D01*
X161154056Y-123080944D01*
X160819772Y-122746660D01*
X161750000Y-122746660D01*
X161875996Y-122722952D01*
X161991716Y-122648489D01*
X162069348Y-122534870D01*
X162096660Y-122400000D01*
X162096660Y-121606269D01*
X162231193Y-121740802D01*
X162231195Y-121740805D01*
X162382052Y-121841604D01*
X162560000Y-121877000D01*
X164018390Y-121877000D01*
X164547000Y-122405610D01*
X164547000Y-123353240D01*
X164427800Y-123353240D01*
X164301804Y-123376948D01*
X164250300Y-123410090D01*
X164207070Y-123380552D01*
X164072200Y-123353240D01*
X162903800Y-123353240D01*
X162777804Y-123376948D01*
X162662084Y-123451411D01*
X162584452Y-123565030D01*
X162557140Y-123699900D01*
X162557140Y-125300100D01*
X162580848Y-125426096D01*
X162655311Y-125541816D01*
X162768930Y-125619448D01*
X162903800Y-125646760D01*
X163023000Y-125646760D01*
X163023000Y-127530391D01*
X163002390Y-127551000D01*
X161603118Y-127551000D01*
X161565648Y-127513464D01*
X161619348Y-127434870D01*
X161646660Y-127300000D01*
X161646660Y-126400000D01*
X161622952Y-126274004D01*
X161548489Y-126158284D01*
X161434870Y-126080652D01*
X161300000Y-126053340D01*
X159800000Y-126053340D01*
X159674004Y-126077048D01*
X159558284Y-126151511D01*
X159480652Y-126265130D01*
X159456378Y-126385000D01*
X157630005Y-126385000D01*
X157630000Y-126384999D01*
X157452052Y-126420396D01*
X157301195Y-126521195D01*
X156187390Y-127635000D01*
X154893838Y-127635000D01*
X154872952Y-127524004D01*
X154803611Y-127416244D01*
X154817888Y-127381862D01*
X154818111Y-127127255D01*
X154720882Y-126891943D01*
X154541004Y-126711751D01*
X154305862Y-126614112D01*
X154051255Y-126613889D01*
X153815943Y-126711118D01*
X153635751Y-126890996D01*
X153538112Y-127126138D01*
X153538015Y-127236375D01*
X153471195Y-127303195D01*
X153471098Y-127303340D01*
X153050000Y-127303340D01*
X153045825Y-127304126D01*
X153046660Y-127300000D01*
X153046660Y-126400000D01*
X153022952Y-126274004D01*
X152972115Y-126195000D01*
X155702000Y-126195000D01*
X155879948Y-126159604D01*
X156030805Y-126058805D01*
X157624595Y-124465015D01*
X157733745Y-124465111D01*
X157969057Y-124367882D01*
X158149249Y-124188004D01*
X158246888Y-123952862D01*
X158247111Y-123698255D01*
X158149882Y-123462943D01*
X157970004Y-123282751D01*
X157734862Y-123185112D01*
X157480255Y-123184889D01*
X157244943Y-123282118D01*
X157064751Y-123461996D01*
X156967112Y-123697138D01*
X156967015Y-123807375D01*
X155509390Y-125265000D01*
X153080000Y-125265000D01*
X153080000Y-124745000D01*
X152995000Y-124660000D01*
X151860000Y-124660000D01*
X151860000Y-124680000D01*
X151440000Y-124680000D01*
X151440000Y-124660000D01*
X150305000Y-124660000D01*
X150220000Y-124745000D01*
X150220000Y-125265000D01*
X147766610Y-125265000D01*
X146939725Y-124438115D01*
X147358870Y-124438115D01*
X147505262Y-124632317D01*
X148090942Y-124812094D01*
X148700836Y-124754055D01*
X148994738Y-124632317D01*
X149141130Y-124438115D01*
X148250000Y-123546985D01*
X147358870Y-124438115D01*
X146939725Y-124438115D01*
X146896000Y-124394390D01*
X146896000Y-124016084D01*
X147061885Y-124141130D01*
X147953015Y-123250000D01*
X148546985Y-123250000D01*
X149438115Y-124141130D01*
X149632317Y-123994738D01*
X149758895Y-123582370D01*
X150220000Y-123582370D01*
X150220000Y-124155000D01*
X150305000Y-124240000D01*
X151440000Y-124240000D01*
X151440000Y-123395000D01*
X151860000Y-123395000D01*
X151860000Y-124240000D01*
X152995000Y-124240000D01*
X153080000Y-124155000D01*
X153080000Y-123582370D01*
X153028238Y-123457405D01*
X152932594Y-123361762D01*
X152807630Y-123310000D01*
X151945000Y-123310000D01*
X151860000Y-123395000D01*
X151440000Y-123395000D01*
X151355000Y-123310000D01*
X150492370Y-123310000D01*
X150367406Y-123361762D01*
X150271762Y-123457405D01*
X150220000Y-123582370D01*
X149758895Y-123582370D01*
X149812094Y-123409058D01*
X149754055Y-122799164D01*
X149632317Y-122505262D01*
X149438115Y-122358870D01*
X148546985Y-123250000D01*
X147953015Y-123250000D01*
X147061885Y-122358870D01*
X146896000Y-122483916D01*
X146896000Y-122239610D01*
X147073725Y-122061885D01*
X147358870Y-122061885D01*
X148250000Y-122953015D01*
X149141130Y-122061885D01*
X148994738Y-121867683D01*
X148409058Y-121687906D01*
X147799164Y-121745945D01*
X147505262Y-121867683D01*
X147358870Y-122061885D01*
X147073725Y-122061885D01*
X147639610Y-121496000D01*
X148276882Y-121496000D01*
X148353996Y-121573249D01*
X148589138Y-121670888D01*
X148843745Y-121671111D01*
X149079057Y-121573882D01*
X149259249Y-121394004D01*
X149356888Y-121158862D01*
X149357111Y-120904255D01*
X149333313Y-120846660D01*
X149900000Y-120846660D01*
X150025996Y-120822952D01*
X150141716Y-120748489D01*
X150219348Y-120634870D01*
X150226409Y-120600000D01*
X150403340Y-120600000D01*
X150403340Y-122400000D01*
X150427048Y-122525996D01*
X150501511Y-122641716D01*
X150615130Y-122719348D01*
X150750000Y-122746660D01*
X151750000Y-122746660D01*
X151875996Y-122722952D01*
X151991716Y-122648489D01*
X152069348Y-122534870D01*
X152096660Y-122400000D01*
X152096660Y-120600000D01*
X152403340Y-120600000D01*
X152403340Y-122400000D01*
X152427048Y-122525996D01*
X152501511Y-122641716D01*
X152615130Y-122719348D01*
X152750000Y-122746660D01*
X153750000Y-122746660D01*
X153875996Y-122722952D01*
X153991716Y-122648489D01*
X154069348Y-122534870D01*
X154096660Y-122400000D01*
X154096660Y-120600000D01*
X154403340Y-120600000D01*
X154403340Y-122400000D01*
X154427048Y-122525996D01*
X154501511Y-122641716D01*
X154615130Y-122719348D01*
X154750000Y-122746660D01*
X155750000Y-122746660D01*
X155875996Y-122722952D01*
X155991716Y-122648489D01*
X156069348Y-122534870D01*
X156096660Y-122400000D01*
X156096660Y-120600000D01*
X156072952Y-120474004D01*
X155998489Y-120358284D01*
X155884870Y-120280652D01*
X155750000Y-120253340D01*
X154750000Y-120253340D01*
X154624004Y-120277048D01*
X154508284Y-120351511D01*
X154430652Y-120465130D01*
X154403340Y-120600000D01*
X154096660Y-120600000D01*
X154072952Y-120474004D01*
X153998489Y-120358284D01*
X153884870Y-120280652D01*
X153750000Y-120253340D01*
X152750000Y-120253340D01*
X152624004Y-120277048D01*
X152508284Y-120351511D01*
X152430652Y-120465130D01*
X152403340Y-120600000D01*
X152096660Y-120600000D01*
X152072952Y-120474004D01*
X151998489Y-120358284D01*
X151884870Y-120280652D01*
X151750000Y-120253340D01*
X150750000Y-120253340D01*
X150624004Y-120277048D01*
X150508284Y-120351511D01*
X150430652Y-120465130D01*
X150403340Y-120600000D01*
X150226409Y-120600000D01*
X150246660Y-120500000D01*
X150246660Y-119500000D01*
X150222952Y-119374004D01*
X150148489Y-119258284D01*
X150034870Y-119180652D01*
X149900000Y-119153340D01*
X147400000Y-119153340D01*
X147274004Y-119177048D01*
X147158284Y-119251511D01*
X147080652Y-119365130D01*
X147053340Y-119500000D01*
X147053340Y-120500000D01*
X147077048Y-120625996D01*
X147123709Y-120698510D01*
X147118195Y-120702195D01*
X146415000Y-121405390D01*
X146415000Y-117500000D01*
X147053340Y-117500000D01*
X147053340Y-118500000D01*
X147077048Y-118625996D01*
X147151511Y-118741716D01*
X147265130Y-118819348D01*
X147400000Y-118846660D01*
X149900000Y-118846660D01*
X150025996Y-118822952D01*
X150141716Y-118748489D01*
X150219348Y-118634870D01*
X150246660Y-118500000D01*
X150246660Y-117500000D01*
X150222952Y-117374004D01*
X150148489Y-117258284D01*
X150034870Y-117180652D01*
X149900000Y-117153340D01*
X147400000Y-117153340D01*
X147274004Y-117177048D01*
X147158284Y-117251511D01*
X147080652Y-117365130D01*
X147053340Y-117500000D01*
X146415000Y-117500000D01*
X146415000Y-115500000D01*
X147053340Y-115500000D01*
X147053340Y-116500000D01*
X147077048Y-116625996D01*
X147151511Y-116741716D01*
X147265130Y-116819348D01*
X147400000Y-116846660D01*
X149900000Y-116846660D01*
X150025996Y-116822952D01*
X150141716Y-116748489D01*
X150219348Y-116634870D01*
X150246660Y-116500000D01*
X150246660Y-115500000D01*
X150222952Y-115374004D01*
X150148489Y-115258284D01*
X150034870Y-115180652D01*
X149900000Y-115153340D01*
X147400000Y-115153340D01*
X147274004Y-115177048D01*
X147158284Y-115251511D01*
X147080652Y-115365130D01*
X147053340Y-115500000D01*
X146415000Y-115500000D01*
X146415000Y-113500000D01*
X147053340Y-113500000D01*
X147053340Y-114500000D01*
X147077048Y-114625996D01*
X147151511Y-114741716D01*
X147265130Y-114819348D01*
X147400000Y-114846660D01*
X149900000Y-114846660D01*
X150025996Y-114822952D01*
X150141716Y-114748489D01*
X150219348Y-114634870D01*
X150246660Y-114500000D01*
X150246660Y-113500000D01*
X150222952Y-113374004D01*
X150148489Y-113258284D01*
X150034870Y-113180652D01*
X149900000Y-113153340D01*
X147400000Y-113153340D01*
X147274004Y-113177048D01*
X147158284Y-113251511D01*
X147080652Y-113365130D01*
X147053340Y-113500000D01*
X146415000Y-113500000D01*
X146415000Y-109644503D01*
X146462820Y-109752543D01*
X146772666Y-109805158D01*
X147037180Y-109752543D01*
X147053340Y-109716033D01*
X147053340Y-110500000D01*
X147077048Y-110625996D01*
X147151511Y-110741716D01*
X147265130Y-110819348D01*
X147400000Y-110846660D01*
X149854910Y-110846660D01*
X149854889Y-110870745D01*
X149952118Y-111106057D01*
X150024483Y-111178549D01*
X149900000Y-111153340D01*
X147400000Y-111153340D01*
X147274004Y-111177048D01*
X147158284Y-111251511D01*
X147080652Y-111365130D01*
X147053340Y-111500000D01*
X147053340Y-112500000D01*
X147077048Y-112625996D01*
X147151511Y-112741716D01*
X147265130Y-112819348D01*
X147400000Y-112846660D01*
X149900000Y-112846660D01*
X150025996Y-112822952D01*
X150141716Y-112748489D01*
X150219348Y-112634870D01*
X150246660Y-112500000D01*
X150246660Y-111500000D01*
X150222952Y-111374004D01*
X150179059Y-111305791D01*
X150367138Y-111383888D01*
X150621745Y-111384111D01*
X150857057Y-111286882D01*
X151037249Y-111107004D01*
X151134888Y-110871862D01*
X151135111Y-110617255D01*
X151037882Y-110381943D01*
X150901615Y-110245439D01*
X150892268Y-110198446D01*
X150799056Y-110058944D01*
X150436056Y-109695944D01*
X150296554Y-109602732D01*
X150246660Y-109592807D01*
X150246660Y-109500000D01*
X150222952Y-109374004D01*
X150148489Y-109258284D01*
X150034870Y-109180652D01*
X149900000Y-109153340D01*
X147525270Y-109153340D01*
X147555158Y-108977334D01*
X147529165Y-108846660D01*
X149900000Y-108846660D01*
X150025996Y-108822952D01*
X150141716Y-108748489D01*
X150219348Y-108634870D01*
X150246660Y-108500000D01*
X150246660Y-107500000D01*
X150222952Y-107374004D01*
X150148489Y-107258284D01*
X150034870Y-107180652D01*
X149900000Y-107153340D01*
X149379309Y-107153340D01*
X149389888Y-107127862D01*
X149390111Y-106873255D01*
X149379122Y-106846660D01*
X149900000Y-106846660D01*
X150025996Y-106822952D01*
X150141716Y-106748489D01*
X150219348Y-106634870D01*
X150246660Y-106500000D01*
X150246660Y-105500000D01*
X150230666Y-105415000D01*
X155696123Y-105415000D01*
X155610112Y-105622138D01*
X155610112Y-105622138D01*
G37*
X155610112Y-105622138D02*
X155609889Y-105876745D01*
X155707118Y-106112057D01*
X155886996Y-106292249D01*
X156122138Y-106389888D01*
X156376745Y-106390111D01*
X156589816Y-106302072D01*
X156445944Y-106445944D01*
X156352732Y-106585446D01*
X156320000Y-106750000D01*
X156320000Y-108571888D01*
X155195944Y-109695944D01*
X155102732Y-109835446D01*
X155070000Y-110000000D01*
X155070000Y-110024943D01*
X154957751Y-110136996D01*
X154860112Y-110372138D01*
X154859889Y-110626745D01*
X154957118Y-110862057D01*
X155136996Y-111042249D01*
X155372138Y-111139888D01*
X155626745Y-111140111D01*
X155862057Y-111042882D01*
X156042249Y-110863004D01*
X156139888Y-110627862D01*
X156140111Y-110373255D01*
X156042882Y-110137943D01*
X156006557Y-110101555D01*
X157054056Y-109054056D01*
X157147268Y-108914554D01*
X157180000Y-108750000D01*
X157180000Y-106928112D01*
X157678112Y-106430000D01*
X160571888Y-106430000D01*
X162253340Y-108111452D01*
X162253340Y-108500000D01*
X162277048Y-108625996D01*
X162351511Y-108741716D01*
X162465130Y-108819348D01*
X162600000Y-108846660D01*
X164974730Y-108846660D01*
X164944842Y-109022666D01*
X164970835Y-109153340D01*
X162600000Y-109153340D01*
X162474004Y-109177048D01*
X162358284Y-109251511D01*
X162280652Y-109365130D01*
X162253340Y-109500000D01*
X162253340Y-109570000D01*
X157970000Y-109570000D01*
X157805446Y-109602732D01*
X157665944Y-109695944D01*
X155651944Y-111709944D01*
X155558732Y-111849446D01*
X155526000Y-112014000D01*
X155526000Y-118999000D01*
X155558732Y-119163554D01*
X155651944Y-119303056D01*
X156332028Y-119983140D01*
X156331889Y-120141745D01*
X156429118Y-120377057D01*
X156465754Y-120413757D01*
X156430652Y-120465130D01*
X156403340Y-120600000D01*
X156403340Y-122400000D01*
X156427048Y-122525996D01*
X156501511Y-122641716D01*
X156615130Y-122719348D01*
X156750000Y-122746660D01*
X157750000Y-122746660D01*
X157875996Y-122722952D01*
X157991716Y-122648489D01*
X158069348Y-122534870D01*
X158096660Y-122400000D01*
X158096660Y-120600000D01*
X158072952Y-120474004D01*
X157998489Y-120358284D01*
X157884870Y-120280652D01*
X157750000Y-120253340D01*
X157566014Y-120253340D01*
X157611888Y-120142862D01*
X157612111Y-119888255D01*
X157514882Y-119652943D01*
X157335004Y-119472751D01*
X157099862Y-119375112D01*
X156940084Y-119374972D01*
X156386000Y-118820888D01*
X156386000Y-115853235D01*
X156413944Y-115895056D01*
X159844000Y-119325112D01*
X159844000Y-120272376D01*
X159750000Y-120253340D01*
X158750000Y-120253340D01*
X158624004Y-120277048D01*
X158508284Y-120351511D01*
X158430652Y-120465130D01*
X158403340Y-120600000D01*
X158403340Y-122400000D01*
X158427048Y-122525996D01*
X158501511Y-122641716D01*
X158615130Y-122719348D01*
X158750000Y-122746660D01*
X159750000Y-122746660D01*
X159844000Y-122728973D01*
X159844000Y-122809000D01*
X159876732Y-122973554D01*
X159969944Y-123113056D01*
X160160228Y-123303340D01*
X159760000Y-123303340D01*
X159634004Y-123327048D01*
X159518284Y-123401511D01*
X159440652Y-123515130D01*
X159413340Y-123650000D01*
X159413340Y-125250000D01*
X159437048Y-125375996D01*
X159511511Y-125491716D01*
X159625130Y-125569348D01*
X159760000Y-125596660D01*
X161940000Y-125596660D01*
X162065996Y-125572952D01*
X162181716Y-125498489D01*
X162259348Y-125384870D01*
X162286660Y-125250000D01*
X162286660Y-123650000D01*
X162262952Y-123524004D01*
X162188489Y-123408284D01*
X162074870Y-123330652D01*
X161940000Y-123303340D01*
X161263757Y-123303340D01*
X161247268Y-123220446D01*
X161154056Y-123080944D01*
X160819772Y-122746660D01*
X161750000Y-122746660D01*
X161875996Y-122722952D01*
X161991716Y-122648489D01*
X162069348Y-122534870D01*
X162096660Y-122400000D01*
X162096660Y-121606269D01*
X162231193Y-121740802D01*
X162231195Y-121740805D01*
X162382052Y-121841604D01*
X162560000Y-121877000D01*
X164018390Y-121877000D01*
X164547000Y-122405610D01*
X164547000Y-123353240D01*
X164427800Y-123353240D01*
X164301804Y-123376948D01*
X164250300Y-123410090D01*
X164207070Y-123380552D01*
X164072200Y-123353240D01*
X162903800Y-123353240D01*
X162777804Y-123376948D01*
X162662084Y-123451411D01*
X162584452Y-123565030D01*
X162557140Y-123699900D01*
X162557140Y-125300100D01*
X162580848Y-125426096D01*
X162655311Y-125541816D01*
X162768930Y-125619448D01*
X162903800Y-125646760D01*
X163023000Y-125646760D01*
X163023000Y-127530391D01*
X163002390Y-127551000D01*
X161603118Y-127551000D01*
X161565648Y-127513464D01*
X161619348Y-127434870D01*
X161646660Y-127300000D01*
X161646660Y-126400000D01*
X161622952Y-126274004D01*
X161548489Y-126158284D01*
X161434870Y-126080652D01*
X161300000Y-126053340D01*
X159800000Y-126053340D01*
X159674004Y-126077048D01*
X159558284Y-126151511D01*
X159480652Y-126265130D01*
X159456378Y-126385000D01*
X157630005Y-126385000D01*
X157630000Y-126384999D01*
X157452052Y-126420396D01*
X157301195Y-126521195D01*
X156187390Y-127635000D01*
X154893838Y-127635000D01*
X154872952Y-127524004D01*
X154803611Y-127416244D01*
X154817888Y-127381862D01*
X154818111Y-127127255D01*
X154720882Y-126891943D01*
X154541004Y-126711751D01*
X154305862Y-126614112D01*
X154051255Y-126613889D01*
X153815943Y-126711118D01*
X153635751Y-126890996D01*
X153538112Y-127126138D01*
X153538015Y-127236375D01*
X153471195Y-127303195D01*
X153471098Y-127303340D01*
X153050000Y-127303340D01*
X153045825Y-127304126D01*
X153046660Y-127300000D01*
X153046660Y-126400000D01*
X153022952Y-126274004D01*
X152972115Y-126195000D01*
X155702000Y-126195000D01*
X155879948Y-126159604D01*
X156030805Y-126058805D01*
X157624595Y-124465015D01*
X157733745Y-124465111D01*
X157969057Y-124367882D01*
X158149249Y-124188004D01*
X158246888Y-123952862D01*
X158247111Y-123698255D01*
X158149882Y-123462943D01*
X157970004Y-123282751D01*
X157734862Y-123185112D01*
X157480255Y-123184889D01*
X157244943Y-123282118D01*
X157064751Y-123461996D01*
X156967112Y-123697138D01*
X156967015Y-123807375D01*
X155509390Y-125265000D01*
X153080000Y-125265000D01*
X153080000Y-124745000D01*
X152995000Y-124660000D01*
X151860000Y-124660000D01*
X151860000Y-124680000D01*
X151440000Y-124680000D01*
X151440000Y-124660000D01*
X150305000Y-124660000D01*
X150220000Y-124745000D01*
X150220000Y-125265000D01*
X147766610Y-125265000D01*
X146939725Y-124438115D01*
X147358870Y-124438115D01*
X147505262Y-124632317D01*
X148090942Y-124812094D01*
X148700836Y-124754055D01*
X148994738Y-124632317D01*
X149141130Y-124438115D01*
X148250000Y-123546985D01*
X147358870Y-124438115D01*
X146939725Y-124438115D01*
X146896000Y-124394390D01*
X146896000Y-124016084D01*
X147061885Y-124141130D01*
X147953015Y-123250000D01*
X148546985Y-123250000D01*
X149438115Y-124141130D01*
X149632317Y-123994738D01*
X149758895Y-123582370D01*
X150220000Y-123582370D01*
X150220000Y-124155000D01*
X150305000Y-124240000D01*
X151440000Y-124240000D01*
X151440000Y-123395000D01*
X151860000Y-123395000D01*
X151860000Y-124240000D01*
X152995000Y-124240000D01*
X153080000Y-124155000D01*
X153080000Y-123582370D01*
X153028238Y-123457405D01*
X152932594Y-123361762D01*
X152807630Y-123310000D01*
X151945000Y-123310000D01*
X151860000Y-123395000D01*
X151440000Y-123395000D01*
X151355000Y-123310000D01*
X150492370Y-123310000D01*
X150367406Y-123361762D01*
X150271762Y-123457405D01*
X150220000Y-123582370D01*
X149758895Y-123582370D01*
X149812094Y-123409058D01*
X149754055Y-122799164D01*
X149632317Y-122505262D01*
X149438115Y-122358870D01*
X148546985Y-123250000D01*
X147953015Y-123250000D01*
X147061885Y-122358870D01*
X146896000Y-122483916D01*
X146896000Y-122239610D01*
X147073725Y-122061885D01*
X147358870Y-122061885D01*
X148250000Y-122953015D01*
X149141130Y-122061885D01*
X148994738Y-121867683D01*
X148409058Y-121687906D01*
X147799164Y-121745945D01*
X147505262Y-121867683D01*
X147358870Y-122061885D01*
X147073725Y-122061885D01*
X147639610Y-121496000D01*
X148276882Y-121496000D01*
X148353996Y-121573249D01*
X148589138Y-121670888D01*
X148843745Y-121671111D01*
X149079057Y-121573882D01*
X149259249Y-121394004D01*
X149356888Y-121158862D01*
X149357111Y-120904255D01*
X149333313Y-120846660D01*
X149900000Y-120846660D01*
X150025996Y-120822952D01*
X150141716Y-120748489D01*
X150219348Y-120634870D01*
X150226409Y-120600000D01*
X150403340Y-120600000D01*
X150403340Y-122400000D01*
X150427048Y-122525996D01*
X150501511Y-122641716D01*
X150615130Y-122719348D01*
X150750000Y-122746660D01*
X151750000Y-122746660D01*
X151875996Y-122722952D01*
X151991716Y-122648489D01*
X152069348Y-122534870D01*
X152096660Y-122400000D01*
X152096660Y-120600000D01*
X152403340Y-120600000D01*
X152403340Y-122400000D01*
X152427048Y-122525996D01*
X152501511Y-122641716D01*
X152615130Y-122719348D01*
X152750000Y-122746660D01*
X153750000Y-122746660D01*
X153875996Y-122722952D01*
X153991716Y-122648489D01*
X154069348Y-122534870D01*
X154096660Y-122400000D01*
X154096660Y-120600000D01*
X154403340Y-120600000D01*
X154403340Y-122400000D01*
X154427048Y-122525996D01*
X154501511Y-122641716D01*
X154615130Y-122719348D01*
X154750000Y-122746660D01*
X155750000Y-122746660D01*
X155875996Y-122722952D01*
X155991716Y-122648489D01*
X156069348Y-122534870D01*
X156096660Y-122400000D01*
X156096660Y-120600000D01*
X156072952Y-120474004D01*
X155998489Y-120358284D01*
X155884870Y-120280652D01*
X155750000Y-120253340D01*
X154750000Y-120253340D01*
X154624004Y-120277048D01*
X154508284Y-120351511D01*
X154430652Y-120465130D01*
X154403340Y-120600000D01*
X154096660Y-120600000D01*
X154072952Y-120474004D01*
X153998489Y-120358284D01*
X153884870Y-120280652D01*
X153750000Y-120253340D01*
X152750000Y-120253340D01*
X152624004Y-120277048D01*
X152508284Y-120351511D01*
X152430652Y-120465130D01*
X152403340Y-120600000D01*
X152096660Y-120600000D01*
X152072952Y-120474004D01*
X151998489Y-120358284D01*
X151884870Y-120280652D01*
X151750000Y-120253340D01*
X150750000Y-120253340D01*
X150624004Y-120277048D01*
X150508284Y-120351511D01*
X150430652Y-120465130D01*
X150403340Y-120600000D01*
X150226409Y-120600000D01*
X150246660Y-120500000D01*
X150246660Y-119500000D01*
X150222952Y-119374004D01*
X150148489Y-119258284D01*
X150034870Y-119180652D01*
X149900000Y-119153340D01*
X147400000Y-119153340D01*
X147274004Y-119177048D01*
X147158284Y-119251511D01*
X147080652Y-119365130D01*
X147053340Y-119500000D01*
X147053340Y-120500000D01*
X147077048Y-120625996D01*
X147123709Y-120698510D01*
X147118195Y-120702195D01*
X146415000Y-121405390D01*
X146415000Y-117500000D01*
X147053340Y-117500000D01*
X147053340Y-118500000D01*
X147077048Y-118625996D01*
X147151511Y-118741716D01*
X147265130Y-118819348D01*
X147400000Y-118846660D01*
X149900000Y-118846660D01*
X150025996Y-118822952D01*
X150141716Y-118748489D01*
X150219348Y-118634870D01*
X150246660Y-118500000D01*
X150246660Y-117500000D01*
X150222952Y-117374004D01*
X150148489Y-117258284D01*
X150034870Y-117180652D01*
X149900000Y-117153340D01*
X147400000Y-117153340D01*
X147274004Y-117177048D01*
X147158284Y-117251511D01*
X147080652Y-117365130D01*
X147053340Y-117500000D01*
X146415000Y-117500000D01*
X146415000Y-115500000D01*
X147053340Y-115500000D01*
X147053340Y-116500000D01*
X147077048Y-116625996D01*
X147151511Y-116741716D01*
X147265130Y-116819348D01*
X147400000Y-116846660D01*
X149900000Y-116846660D01*
X150025996Y-116822952D01*
X150141716Y-116748489D01*
X150219348Y-116634870D01*
X150246660Y-116500000D01*
X150246660Y-115500000D01*
X150222952Y-115374004D01*
X150148489Y-115258284D01*
X150034870Y-115180652D01*
X149900000Y-115153340D01*
X147400000Y-115153340D01*
X147274004Y-115177048D01*
X147158284Y-115251511D01*
X147080652Y-115365130D01*
X147053340Y-115500000D01*
X146415000Y-115500000D01*
X146415000Y-113500000D01*
X147053340Y-113500000D01*
X147053340Y-114500000D01*
X147077048Y-114625996D01*
X147151511Y-114741716D01*
X147265130Y-114819348D01*
X147400000Y-114846660D01*
X149900000Y-114846660D01*
X150025996Y-114822952D01*
X150141716Y-114748489D01*
X150219348Y-114634870D01*
X150246660Y-114500000D01*
X150246660Y-113500000D01*
X150222952Y-113374004D01*
X150148489Y-113258284D01*
X150034870Y-113180652D01*
X149900000Y-113153340D01*
X147400000Y-113153340D01*
X147274004Y-113177048D01*
X147158284Y-113251511D01*
X147080652Y-113365130D01*
X147053340Y-113500000D01*
X146415000Y-113500000D01*
X146415000Y-109644503D01*
X146462820Y-109752543D01*
X146772666Y-109805158D01*
X147037180Y-109752543D01*
X147053340Y-109716033D01*
X147053340Y-110500000D01*
X147077048Y-110625996D01*
X147151511Y-110741716D01*
X147265130Y-110819348D01*
X147400000Y-110846660D01*
X149854910Y-110846660D01*
X149854889Y-110870745D01*
X149952118Y-111106057D01*
X150024483Y-111178549D01*
X149900000Y-111153340D01*
X147400000Y-111153340D01*
X147274004Y-111177048D01*
X147158284Y-111251511D01*
X147080652Y-111365130D01*
X147053340Y-111500000D01*
X147053340Y-112500000D01*
X147077048Y-112625996D01*
X147151511Y-112741716D01*
X147265130Y-112819348D01*
X147400000Y-112846660D01*
X149900000Y-112846660D01*
X150025996Y-112822952D01*
X150141716Y-112748489D01*
X150219348Y-112634870D01*
X150246660Y-112500000D01*
X150246660Y-111500000D01*
X150222952Y-111374004D01*
X150179059Y-111305791D01*
X150367138Y-111383888D01*
X150621745Y-111384111D01*
X150857057Y-111286882D01*
X151037249Y-111107004D01*
X151134888Y-110871862D01*
X151135111Y-110617255D01*
X151037882Y-110381943D01*
X150901615Y-110245439D01*
X150892268Y-110198446D01*
X150799056Y-110058944D01*
X150436056Y-109695944D01*
X150296554Y-109602732D01*
X150246660Y-109592807D01*
X150246660Y-109500000D01*
X150222952Y-109374004D01*
X150148489Y-109258284D01*
X150034870Y-109180652D01*
X149900000Y-109153340D01*
X147525270Y-109153340D01*
X147555158Y-108977334D01*
X147529165Y-108846660D01*
X149900000Y-108846660D01*
X150025996Y-108822952D01*
X150141716Y-108748489D01*
X150219348Y-108634870D01*
X150246660Y-108500000D01*
X150246660Y-107500000D01*
X150222952Y-107374004D01*
X150148489Y-107258284D01*
X150034870Y-107180652D01*
X149900000Y-107153340D01*
X149379309Y-107153340D01*
X149389888Y-107127862D01*
X149390111Y-106873255D01*
X149379122Y-106846660D01*
X149900000Y-106846660D01*
X150025996Y-106822952D01*
X150141716Y-106748489D01*
X150219348Y-106634870D01*
X150246660Y-106500000D01*
X150246660Y-105500000D01*
X150230666Y-105415000D01*
X155696123Y-105415000D01*
X155610112Y-105622138D01*
G36*
X147061127Y-108985858D02*
X147046985Y-109000000D01*
X147061127Y-109014142D01*
X146764142Y-109311127D01*
X146750000Y-109296985D01*
X146735858Y-109311127D01*
X146438873Y-109014142D01*
X146453015Y-109000000D01*
X146438873Y-108985858D01*
X146735858Y-108688873D01*
X146750000Y-108703015D01*
X146764142Y-108688873D01*
X147061127Y-108985858D01*
X147061127Y-108985858D01*
G37*
X147061127Y-108985858D02*
X147046985Y-109000000D01*
X147061127Y-109014142D01*
X146764142Y-109311127D01*
X146750000Y-109296985D01*
X146735858Y-109311127D01*
X146438873Y-109014142D01*
X146453015Y-109000000D01*
X146438873Y-108985858D01*
X146735858Y-108688873D01*
X146750000Y-108703015D01*
X146764142Y-108688873D01*
X147061127Y-108985858D01*
G36*
X166061127Y-108985858D02*
X166046985Y-109000000D01*
X166061127Y-109014142D01*
X165764142Y-109311127D01*
X165750000Y-109296985D01*
X165735858Y-109311127D01*
X165438873Y-109014142D01*
X165453015Y-109000000D01*
X165438873Y-108985858D01*
X165735858Y-108688873D01*
X165750000Y-108703015D01*
X165764142Y-108688873D01*
X166061127Y-108985858D01*
X166061127Y-108985858D01*
G37*
X166061127Y-108985858D02*
X166046985Y-109000000D01*
X166061127Y-109014142D01*
X165764142Y-109311127D01*
X165750000Y-109296985D01*
X165735858Y-109311127D01*
X165438873Y-109014142D01*
X165453015Y-109000000D01*
X165438873Y-108985858D01*
X165735858Y-108688873D01*
X165750000Y-108703015D01*
X165764142Y-108688873D01*
X166061127Y-108985858D01*
G36*
X147061127Y-106985858D02*
X147046985Y-107000000D01*
X147061127Y-107014142D01*
X146764142Y-107311127D01*
X146750000Y-107296985D01*
X146735858Y-107311127D01*
X146438873Y-107014142D01*
X146453015Y-107000000D01*
X146438873Y-106985858D01*
X146735858Y-106688873D01*
X146750000Y-106703015D01*
X146764142Y-106688873D01*
X147061127Y-106985858D01*
X147061127Y-106985858D01*
G37*
X147061127Y-106985858D02*
X147046985Y-107000000D01*
X147061127Y-107014142D01*
X146764142Y-107311127D01*
X146750000Y-107296985D01*
X146735858Y-107311127D01*
X146438873Y-107014142D01*
X146453015Y-107000000D01*
X146438873Y-106985858D01*
X146735858Y-106688873D01*
X146750000Y-106703015D01*
X146764142Y-106688873D01*
X147061127Y-106985858D01*
G36*
X166061127Y-106985858D02*
X166046985Y-107000000D01*
X166061127Y-107014142D01*
X165764142Y-107311127D01*
X165750000Y-107296985D01*
X165735858Y-107311127D01*
X165438873Y-107014142D01*
X165453015Y-107000000D01*
X165438873Y-106985858D01*
X165735858Y-106688873D01*
X165750000Y-106703015D01*
X165764142Y-106688873D01*
X166061127Y-106985858D01*
X166061127Y-106985858D01*
G37*
X166061127Y-106985858D02*
X166046985Y-107000000D01*
X166061127Y-107014142D01*
X165764142Y-107311127D01*
X165750000Y-107296985D01*
X165735858Y-107311127D01*
X165438873Y-107014142D01*
X165453015Y-107000000D01*
X165438873Y-106985858D01*
X165735858Y-106688873D01*
X165750000Y-106703015D01*
X165764142Y-106688873D01*
X166061127Y-106985858D01*
M02*
