G04 #@! TF.FileFunction,Soldermask,Top*
%FSLAX46Y46*%
G04 Gerber Fmt 4.6, Leading zero omitted, Abs format (unit mm)*
G04 Created by KiCad (PCBNEW 4.0.7-e2-6376~58~ubuntu17.04.1) date Tue Dec 26 12:58:55 2017*
%MOMM*%
%LPD*%
G01*
G04 APERTURE LIST*
%ADD10C,0.100000*%
%ADD11R,1.900000X1.300000*%
%ADD12R,1.568400X2.000200*%
%ADD13R,2.580000X2.000000*%
%ADD14C,2.800000*%
%ADD15C,1.300000*%
%ADD16R,2.900000X1.400000*%
%ADD17R,1.400000X2.200000*%
G04 APERTURE END LIST*
D10*
D11*
X147050000Y-126850000D03*
X147050000Y-130150000D03*
X151950000Y-130150000D03*
X151950000Y-126850000D03*
D12*
X163488000Y-124500000D03*
X165012000Y-124500000D03*
D11*
X153800000Y-128100000D03*
X153800000Y-131400000D03*
X158700000Y-131400000D03*
X158700000Y-128100000D03*
X160550000Y-126850000D03*
X160550000Y-130150000D03*
X165450000Y-130150000D03*
X165450000Y-126850000D03*
D13*
X160850000Y-124450000D03*
X151650000Y-124450000D03*
D14*
X148250000Y-123250000D03*
D15*
X146750000Y-107000000D03*
X165750000Y-107000000D03*
X146750000Y-109000000D03*
X165750000Y-109000000D03*
X148500000Y-132000000D03*
X164000000Y-132000000D03*
X151750000Y-132000000D03*
X160750000Y-132000000D03*
D16*
X148650000Y-106000000D03*
X148650000Y-108000000D03*
X148650000Y-110000000D03*
X148650000Y-112000000D03*
X148650000Y-114000000D03*
X148650000Y-116000000D03*
X148650000Y-118000000D03*
X148650000Y-120000000D03*
D17*
X151250000Y-121500000D03*
X153250000Y-121500000D03*
X155250000Y-121500000D03*
X157250000Y-121500000D03*
X159250000Y-121500000D03*
X161250000Y-121500000D03*
D16*
X163850000Y-120000000D03*
X163850000Y-118000000D03*
X163850000Y-116000000D03*
X163850000Y-114000000D03*
X163850000Y-112000000D03*
X163850000Y-110000000D03*
X163850000Y-108000000D03*
X163850000Y-106000000D03*
M02*
