G04 #@! TF.FileFunction,Legend,Bot*
%FSLAX46Y46*%
G04 Gerber Fmt 4.6, Leading zero omitted, Abs format (unit mm)*
G04 Created by KiCad (PCBNEW 4.0.7-e2-6376~58~ubuntu17.04.1) date Tue Dec 26 12:58:55 2017*
%MOMM*%
%LPD*%
G01*
G04 APERTURE LIST*
%ADD10C,0.100000*%
%ADD11C,0.400000*%
%ADD12C,0.120000*%
%ADD13C,0.152400*%
%ADD14C,0.150000*%
G04 APERTURE END LIST*
D10*
X155203286Y-116721429D02*
X155546143Y-116721429D01*
X155374715Y-116721429D02*
X155299715Y-116121429D01*
X155367572Y-116207143D01*
X155431857Y-116264286D01*
X155492571Y-116292857D01*
X154928286Y-116121429D02*
X154556857Y-116121429D01*
X154785428Y-116350000D01*
X154699714Y-116350000D01*
X154646142Y-116378571D01*
X154621143Y-116407143D01*
X154599714Y-116464286D01*
X154617571Y-116607143D01*
X154653286Y-116664286D01*
X154685428Y-116692857D01*
X154746143Y-116721429D01*
X154917571Y-116721429D01*
X154971142Y-116692857D01*
X154996143Y-116664286D01*
X153867571Y-116321429D02*
X153931856Y-116835714D01*
X153967570Y-116892857D01*
X154028285Y-116921429D01*
X154056857Y-116921429D01*
X153842571Y-116121429D02*
X153874713Y-116150000D01*
X153849713Y-116178571D01*
X153817570Y-116150000D01*
X153842571Y-116121429D01*
X153849713Y-116178571D01*
X153374714Y-116721429D02*
X153335428Y-116407143D01*
X153356856Y-116350000D01*
X153410428Y-116321429D01*
X153524714Y-116321429D01*
X153585428Y-116350000D01*
X153371142Y-116692857D02*
X153431857Y-116721429D01*
X153574714Y-116721429D01*
X153628285Y-116692857D01*
X153649713Y-116635714D01*
X153642570Y-116578571D01*
X153606857Y-116521429D01*
X153546142Y-116492857D01*
X153403285Y-116492857D01*
X153342571Y-116464286D01*
X153039000Y-116321429D02*
X153089000Y-116721429D01*
X153046142Y-116378571D02*
X153013999Y-116350000D01*
X152953286Y-116321429D01*
X152867571Y-116321429D01*
X152813999Y-116350000D01*
X152792571Y-116407143D01*
X152831857Y-116721429D01*
X152553286Y-116321429D02*
X152460429Y-116721429D01*
X152267571Y-116321429D01*
X152089000Y-116721429D02*
X152039000Y-116321429D01*
X152014000Y-116121429D02*
X152046142Y-116150000D01*
X152021142Y-116178571D01*
X151988999Y-116150000D01*
X152014000Y-116121429D01*
X152021142Y-116178571D01*
X151571142Y-116692857D02*
X151631857Y-116721429D01*
X151746143Y-116721429D01*
X151799714Y-116692857D01*
X151821142Y-116635714D01*
X151792571Y-116407143D01*
X151756857Y-116350000D01*
X151696143Y-116321429D01*
X151581857Y-116321429D01*
X151528285Y-116350000D01*
X151506857Y-116407143D01*
X151514000Y-116464286D01*
X151806857Y-116521429D01*
X151289000Y-116721429D02*
X151239000Y-116321429D01*
X151253285Y-116435714D02*
X151217570Y-116378571D01*
X151185428Y-116350000D01*
X151124714Y-116321429D01*
X151067571Y-116321429D01*
X150421141Y-116178571D02*
X150388999Y-116150000D01*
X150328285Y-116121429D01*
X150185428Y-116121429D01*
X150131856Y-116150000D01*
X150106856Y-116178571D01*
X150085427Y-116235714D01*
X150092570Y-116292857D01*
X150131856Y-116378571D01*
X150517571Y-116721429D01*
X150146142Y-116721429D01*
X149699713Y-116121429D02*
X149642570Y-116121429D01*
X149588998Y-116150000D01*
X149563998Y-116178571D01*
X149542570Y-116235714D01*
X149528284Y-116350000D01*
X149546141Y-116492857D01*
X149588999Y-116607143D01*
X149624713Y-116664286D01*
X149656855Y-116692857D01*
X149717570Y-116721429D01*
X149774713Y-116721429D01*
X149828284Y-116692857D01*
X149853284Y-116664286D01*
X149874713Y-116607143D01*
X149888998Y-116492857D01*
X149871141Y-116350000D01*
X149828284Y-116235714D01*
X149792569Y-116178571D01*
X149760427Y-116150000D01*
X149699713Y-116121429D01*
X149003284Y-116721429D02*
X149346141Y-116721429D01*
X149174713Y-116721429D02*
X149099713Y-116121429D01*
X149167570Y-116207143D01*
X149231855Y-116264286D01*
X149292569Y-116292857D01*
X148617569Y-116378571D02*
X148671140Y-116350000D01*
X148696141Y-116321429D01*
X148717569Y-116264286D01*
X148713997Y-116235714D01*
X148678283Y-116178571D01*
X148646140Y-116150000D01*
X148585427Y-116121429D01*
X148471141Y-116121429D01*
X148417569Y-116150000D01*
X148392569Y-116178571D01*
X148371140Y-116235714D01*
X148374712Y-116264286D01*
X148410427Y-116321429D01*
X148442569Y-116350000D01*
X148503283Y-116378571D01*
X148617569Y-116378571D01*
X148678283Y-116407143D01*
X148710426Y-116435714D01*
X148746140Y-116492857D01*
X148760426Y-116607143D01*
X148738998Y-116664286D01*
X148713997Y-116692857D01*
X148660427Y-116721429D01*
X148546141Y-116721429D01*
X148485426Y-116692857D01*
X148453284Y-116664286D01*
X148417569Y-116607143D01*
X148403283Y-116492857D01*
X148424712Y-116435714D01*
X148449712Y-116407143D01*
X148503283Y-116378571D01*
X155167572Y-117664286D02*
X155199714Y-117692857D01*
X155289000Y-117721429D01*
X155346143Y-117721429D01*
X155428286Y-117692857D01*
X155478285Y-117635714D01*
X155499714Y-117578571D01*
X155514000Y-117464286D01*
X155503285Y-117378571D01*
X155460429Y-117264286D01*
X155424714Y-117207143D01*
X155360429Y-117150000D01*
X155271143Y-117121429D01*
X155214000Y-117121429D01*
X155131857Y-117150000D01*
X155106857Y-117178571D01*
X154917572Y-117721429D02*
X154842572Y-117121429D01*
X154639000Y-117550000D02*
X154353286Y-117550000D01*
X154717572Y-117721429D02*
X154442572Y-117121429D01*
X154317572Y-117721429D01*
X153531857Y-117378571D02*
X153585428Y-117350000D01*
X153610429Y-117321429D01*
X153631857Y-117264286D01*
X153628285Y-117235714D01*
X153592571Y-117178571D01*
X153560428Y-117150000D01*
X153499715Y-117121429D01*
X153385429Y-117121429D01*
X153331857Y-117150000D01*
X153306857Y-117178571D01*
X153285428Y-117235714D01*
X153289000Y-117264286D01*
X153324715Y-117321429D01*
X153356857Y-117350000D01*
X153417571Y-117378571D01*
X153531857Y-117378571D01*
X153592571Y-117407143D01*
X153624714Y-117435714D01*
X153660428Y-117492857D01*
X153674714Y-117607143D01*
X153653286Y-117664286D01*
X153628285Y-117692857D01*
X153574715Y-117721429D01*
X153460429Y-117721429D01*
X153399714Y-117692857D01*
X153367572Y-117664286D01*
X153331857Y-117607143D01*
X153317571Y-117492857D01*
X153339000Y-117435714D01*
X153364000Y-117407143D01*
X153417571Y-117378571D01*
X152899714Y-117121429D02*
X152842571Y-117121429D01*
X152788999Y-117150000D01*
X152763999Y-117178571D01*
X152742571Y-117235714D01*
X152728285Y-117350000D01*
X152746142Y-117492857D01*
X152789000Y-117607143D01*
X152824714Y-117664286D01*
X152856856Y-117692857D01*
X152917571Y-117721429D01*
X152974714Y-117721429D01*
X153028285Y-117692857D01*
X153053285Y-117664286D01*
X153074714Y-117607143D01*
X153088999Y-117492857D01*
X153071142Y-117350000D01*
X153028285Y-117235714D01*
X152992570Y-117178571D01*
X152960428Y-117150000D01*
X152899714Y-117121429D01*
X152328285Y-117121429D02*
X152271142Y-117121429D01*
X152217570Y-117150000D01*
X152192570Y-117178571D01*
X152171142Y-117235714D01*
X152156856Y-117350000D01*
X152174713Y-117492857D01*
X152217571Y-117607143D01*
X152253285Y-117664286D01*
X152285427Y-117692857D01*
X152346142Y-117721429D01*
X152403285Y-117721429D01*
X152456856Y-117692857D01*
X152481856Y-117664286D01*
X152503285Y-117607143D01*
X152517570Y-117492857D01*
X152499713Y-117350000D01*
X152456856Y-117235714D01*
X152421141Y-117178571D01*
X152388999Y-117150000D01*
X152328285Y-117121429D01*
X151631856Y-117721429D02*
X151974713Y-117721429D01*
X151803285Y-117721429D02*
X151728285Y-117121429D01*
X151796142Y-117207143D01*
X151860427Y-117264286D01*
X151921141Y-117292857D01*
X164766667Y-105600001D02*
X164066667Y-105600001D01*
X164066667Y-105866667D01*
X164100000Y-105933334D01*
X164133333Y-105966667D01*
X164200000Y-106000001D01*
X164300000Y-106000001D01*
X164366667Y-105966667D01*
X164400000Y-105933334D01*
X164433333Y-105866667D01*
X164433333Y-105600001D01*
X164766667Y-106700001D02*
X164433333Y-106466667D01*
X164766667Y-106300001D02*
X164066667Y-106300001D01*
X164066667Y-106566667D01*
X164100000Y-106633334D01*
X164133333Y-106666667D01*
X164200000Y-106700001D01*
X164300000Y-106700001D01*
X164366667Y-106666667D01*
X164400000Y-106633334D01*
X164433333Y-106566667D01*
X164433333Y-106300001D01*
X164066667Y-107133334D02*
X164066667Y-107266667D01*
X164100000Y-107333334D01*
X164166667Y-107400001D01*
X164300000Y-107433334D01*
X164533333Y-107433334D01*
X164666667Y-107400001D01*
X164733333Y-107333334D01*
X164766667Y-107266667D01*
X164766667Y-107133334D01*
X164733333Y-107066667D01*
X164666667Y-107000001D01*
X164533333Y-106966667D01*
X164300000Y-106966667D01*
X164166667Y-107000001D01*
X164100000Y-107066667D01*
X164066667Y-107133334D01*
X164100000Y-108100000D02*
X164066667Y-108033334D01*
X164066667Y-107933334D01*
X164100000Y-107833334D01*
X164166667Y-107766667D01*
X164233333Y-107733334D01*
X164366667Y-107700000D01*
X164466667Y-107700000D01*
X164600000Y-107733334D01*
X164666667Y-107766667D01*
X164733333Y-107833334D01*
X164766667Y-107933334D01*
X164766667Y-108000000D01*
X164733333Y-108100000D01*
X164700000Y-108133334D01*
X164466667Y-108133334D01*
X164466667Y-108000000D01*
D11*
X157981857Y-113568762D02*
X157600905Y-113568762D01*
X157410429Y-113664000D01*
X157219952Y-113854476D01*
X157124714Y-114235429D01*
X157124714Y-114902095D01*
X157219952Y-115283048D01*
X157410429Y-115473524D01*
X157600905Y-115568762D01*
X157981857Y-115568762D01*
X158172333Y-115473524D01*
X158362810Y-115283048D01*
X158458048Y-114902095D01*
X158458048Y-114235429D01*
X158362810Y-113854476D01*
X158172333Y-113664000D01*
X157981857Y-113568762D01*
X156267572Y-114235429D02*
X156267572Y-116235429D01*
X156267572Y-114330667D02*
X156077095Y-114235429D01*
X155696143Y-114235429D01*
X155505667Y-114330667D01*
X155410429Y-114425905D01*
X155315191Y-114616381D01*
X155315191Y-115187810D01*
X155410429Y-115378286D01*
X155505667Y-115473524D01*
X155696143Y-115568762D01*
X156077095Y-115568762D01*
X156267572Y-115473524D01*
X153696143Y-115473524D02*
X153886619Y-115568762D01*
X154267571Y-115568762D01*
X154458048Y-115473524D01*
X154553286Y-115283048D01*
X154553286Y-114521143D01*
X154458048Y-114330667D01*
X154267571Y-114235429D01*
X153886619Y-114235429D01*
X153696143Y-114330667D01*
X153600905Y-114521143D01*
X153600905Y-114711619D01*
X154553286Y-114902095D01*
X152743762Y-114235429D02*
X152743762Y-115568762D01*
X152743762Y-114425905D02*
X152648523Y-114330667D01*
X152458047Y-114235429D01*
X152172333Y-114235429D01*
X151981857Y-114330667D01*
X151886619Y-114521143D01*
X151886619Y-115568762D01*
X151029476Y-115473524D02*
X150743761Y-115568762D01*
X150267571Y-115568762D01*
X150077095Y-115473524D01*
X149981857Y-115378286D01*
X149886618Y-115187810D01*
X149886618Y-114997333D01*
X149981857Y-114806857D01*
X150077095Y-114711619D01*
X150267571Y-114616381D01*
X150648523Y-114521143D01*
X150838999Y-114425905D01*
X150934238Y-114330667D01*
X151029476Y-114140190D01*
X151029476Y-113949714D01*
X150934238Y-113759238D01*
X150838999Y-113664000D01*
X150648523Y-113568762D01*
X150172333Y-113568762D01*
X149886618Y-113664000D01*
X149029476Y-115378286D02*
X148934237Y-115473524D01*
X149029476Y-115568762D01*
X149124714Y-115473524D01*
X149029476Y-115378286D01*
X149029476Y-115568762D01*
D10*
X147369048Y-127071429D02*
X148130953Y-127071429D01*
X147750001Y-127452381D02*
X147750001Y-126690476D01*
X149369048Y-127071429D02*
X150130953Y-127071429D01*
D12*
X153500000Y-120270000D02*
X151500000Y-120270000D01*
X151500000Y-118230000D02*
X153500000Y-118230000D01*
X162600000Y-130400000D02*
X161900000Y-130400000D01*
X161900000Y-131600000D02*
X162600000Y-131600000D01*
X158650000Y-122150000D02*
X158650000Y-122850000D01*
X159850000Y-122850000D02*
X159850000Y-122150000D01*
X155100000Y-130650000D02*
X154400000Y-130650000D01*
X154400000Y-131850000D02*
X155100000Y-131850000D01*
X151150000Y-122150000D02*
X151150000Y-122850000D01*
X152350000Y-122850000D02*
X152350000Y-122150000D01*
X150000000Y-110680000D02*
X151000000Y-110680000D01*
X151000000Y-109320000D02*
X150000000Y-109320000D01*
X161409000Y-115525000D02*
X160409000Y-115525000D01*
X160409000Y-116885000D02*
X161409000Y-116885000D01*
X161409000Y-116922000D02*
X160409000Y-116922000D01*
X160409000Y-118282000D02*
X161409000Y-118282000D01*
X149995000Y-112186000D02*
X150995000Y-112186000D01*
X150995000Y-110826000D02*
X149995000Y-110826000D01*
X161409000Y-118319000D02*
X160409000Y-118319000D01*
X160409000Y-119679000D02*
X161409000Y-119679000D01*
X154250000Y-109320000D02*
X153250000Y-109320000D01*
X153250000Y-110680000D02*
X154250000Y-110680000D01*
X154250000Y-110820000D02*
X153250000Y-110820000D01*
X153250000Y-112180000D02*
X154250000Y-112180000D01*
X158840000Y-124340000D02*
X160100000Y-124340000D01*
X165660000Y-124340000D02*
X164400000Y-124340000D01*
X158840000Y-128100000D02*
X158840000Y-124340000D01*
X165660000Y-130350000D02*
X165660000Y-124340000D01*
X151340000Y-124340000D02*
X152600000Y-124340000D01*
X158160000Y-124340000D02*
X156900000Y-124340000D01*
X151340000Y-128100000D02*
X151340000Y-124340000D01*
X158160000Y-130350000D02*
X158160000Y-124340000D01*
D13*
X150655000Y-127726000D02*
X146845000Y-127726000D01*
X150909000Y-130520000D02*
G75*
G02X150655000Y-130774000I-254000J0D01*
G01*
X146845000Y-130774000D02*
G75*
G02X146591000Y-130520000I0J254000D01*
G01*
X146845000Y-127726000D02*
G75*
G03X146591000Y-127980000I0J-254000D01*
G01*
X150909000Y-127980000D02*
G75*
G03X150655000Y-127726000I-254000J0D01*
G01*
X150909000Y-127980000D02*
X150909000Y-130520000D01*
X146591000Y-127980000D02*
X146591000Y-130520000D01*
X146845000Y-130774000D02*
X150655000Y-130774000D01*
D14*
X149900000Y-108016000D02*
X163616000Y-108016000D01*
X163616000Y-108016000D02*
X163616000Y-105476000D01*
X163616000Y-105476000D02*
X161584000Y-105476000D01*
X161584000Y-105476000D02*
X161584000Y-106492000D01*
X149116666Y-119500000D02*
X149150000Y-119533333D01*
X149250000Y-119566667D01*
X149316666Y-119566667D01*
X149416666Y-119533333D01*
X149483333Y-119466667D01*
X149516666Y-119400000D01*
X149550000Y-119266667D01*
X149550000Y-119166667D01*
X149516666Y-119033333D01*
X149483333Y-118966667D01*
X149416666Y-118900000D01*
X149316666Y-118866667D01*
X149250000Y-118866667D01*
X149150000Y-118900000D01*
X149116666Y-118933333D01*
X148450000Y-119566667D02*
X148850000Y-119566667D01*
X148650000Y-119566667D02*
X148650000Y-118866667D01*
X148716666Y-118966667D01*
X148783333Y-119033333D01*
X148850000Y-119066667D01*
X147570000Y-110627334D02*
X147603333Y-110594000D01*
X147636667Y-110494000D01*
X147636667Y-110427334D01*
X147603333Y-110327334D01*
X147536667Y-110260667D01*
X147470000Y-110227334D01*
X147336667Y-110194000D01*
X147236667Y-110194000D01*
X147103333Y-110227334D01*
X147036667Y-110260667D01*
X146970000Y-110327334D01*
X146936667Y-110427334D01*
X146936667Y-110494000D01*
X146970000Y-110594000D01*
X147003333Y-110627334D01*
X147003333Y-110894000D02*
X146970000Y-110927334D01*
X146936667Y-110994000D01*
X146936667Y-111160667D01*
X146970000Y-111227334D01*
X147003333Y-111260667D01*
X147070000Y-111294000D01*
X147136667Y-111294000D01*
X147236667Y-111260667D01*
X147636667Y-110860667D01*
X147636667Y-111294000D01*
X159366666Y-131700000D02*
X159400000Y-131733333D01*
X159500000Y-131766667D01*
X159566666Y-131766667D01*
X159666666Y-131733333D01*
X159733333Y-131666667D01*
X159766666Y-131600000D01*
X159800000Y-131466667D01*
X159800000Y-131366667D01*
X159766666Y-131233333D01*
X159733333Y-131166667D01*
X159666666Y-131100000D01*
X159566666Y-131066667D01*
X159500000Y-131066667D01*
X159400000Y-131100000D01*
X159366666Y-131133333D01*
X159133333Y-131066667D02*
X158700000Y-131066667D01*
X158933333Y-131333333D01*
X158833333Y-131333333D01*
X158766666Y-131366667D01*
X158733333Y-131400000D01*
X158700000Y-131466667D01*
X158700000Y-131633333D01*
X158733333Y-131700000D01*
X158766666Y-131733333D01*
X158833333Y-131766667D01*
X159033333Y-131766667D01*
X159100000Y-131733333D01*
X159133333Y-131700000D01*
X161116666Y-121500000D02*
X161150000Y-121533333D01*
X161250000Y-121566667D01*
X161316666Y-121566667D01*
X161416666Y-121533333D01*
X161483333Y-121466667D01*
X161516666Y-121400000D01*
X161550000Y-121266667D01*
X161550000Y-121166667D01*
X161516666Y-121033333D01*
X161483333Y-120966667D01*
X161416666Y-120900000D01*
X161316666Y-120866667D01*
X161250000Y-120866667D01*
X161150000Y-120900000D01*
X161116666Y-120933333D01*
X160516666Y-121100000D02*
X160516666Y-121566667D01*
X160683333Y-120833333D02*
X160850000Y-121333333D01*
X160416666Y-121333333D01*
X157366666Y-131700000D02*
X157400000Y-131733333D01*
X157500000Y-131766667D01*
X157566666Y-131766667D01*
X157666666Y-131733333D01*
X157733333Y-131666667D01*
X157766666Y-131600000D01*
X157800000Y-131466667D01*
X157800000Y-131366667D01*
X157766666Y-131233333D01*
X157733333Y-131166667D01*
X157666666Y-131100000D01*
X157566666Y-131066667D01*
X157500000Y-131066667D01*
X157400000Y-131100000D01*
X157366666Y-131133333D01*
X156733333Y-131066667D02*
X157066666Y-131066667D01*
X157100000Y-131400000D01*
X157066666Y-131366667D01*
X157000000Y-131333333D01*
X156833333Y-131333333D01*
X156766666Y-131366667D01*
X156733333Y-131400000D01*
X156700000Y-131466667D01*
X156700000Y-131633333D01*
X156733333Y-131700000D01*
X156766666Y-131733333D01*
X156833333Y-131766667D01*
X157000000Y-131766667D01*
X157066666Y-131733333D01*
X157100000Y-131700000D01*
X153616666Y-121500000D02*
X153650000Y-121533333D01*
X153750000Y-121566667D01*
X153816666Y-121566667D01*
X153916666Y-121533333D01*
X153983333Y-121466667D01*
X154016666Y-121400000D01*
X154050000Y-121266667D01*
X154050000Y-121166667D01*
X154016666Y-121033333D01*
X153983333Y-120966667D01*
X153916666Y-120900000D01*
X153816666Y-120866667D01*
X153750000Y-120866667D01*
X153650000Y-120900000D01*
X153616666Y-120933333D01*
X153016666Y-120866667D02*
X153150000Y-120866667D01*
X153216666Y-120900000D01*
X153250000Y-120933333D01*
X153316666Y-121033333D01*
X153350000Y-121166667D01*
X153350000Y-121433333D01*
X153316666Y-121500000D01*
X153283333Y-121533333D01*
X153216666Y-121566667D01*
X153083333Y-121566667D01*
X153016666Y-121533333D01*
X152983333Y-121500000D01*
X152950000Y-121433333D01*
X152950000Y-121266667D01*
X152983333Y-121200000D01*
X153016666Y-121166667D01*
X153083333Y-121133333D01*
X153216666Y-121133333D01*
X153283333Y-121166667D01*
X153316666Y-121200000D01*
X153350000Y-121266667D01*
X148452666Y-108901667D02*
X148686000Y-108568333D01*
X148852666Y-108901667D02*
X148852666Y-108201667D01*
X148586000Y-108201667D01*
X148519333Y-108235000D01*
X148486000Y-108268333D01*
X148452666Y-108335000D01*
X148452666Y-108435000D01*
X148486000Y-108501667D01*
X148519333Y-108535000D01*
X148586000Y-108568333D01*
X148852666Y-108568333D01*
X147786000Y-108901667D02*
X148186000Y-108901667D01*
X147986000Y-108901667D02*
X147986000Y-108201667D01*
X148052666Y-108301667D01*
X148119333Y-108368333D01*
X148186000Y-108401667D01*
X163575666Y-116657381D02*
X163909000Y-116181190D01*
X164147095Y-116657381D02*
X164147095Y-115657381D01*
X163766142Y-115657381D01*
X163670904Y-115705000D01*
X163623285Y-115752619D01*
X163575666Y-115847857D01*
X163575666Y-115990714D01*
X163623285Y-116085952D01*
X163670904Y-116133571D01*
X163766142Y-116181190D01*
X164147095Y-116181190D01*
X163194714Y-115752619D02*
X163147095Y-115705000D01*
X163051857Y-115657381D01*
X162813761Y-115657381D01*
X162718523Y-115705000D01*
X162670904Y-115752619D01*
X162623285Y-115847857D01*
X162623285Y-115943095D01*
X162670904Y-116085952D01*
X163242333Y-116657381D01*
X162623285Y-116657381D01*
X163615666Y-118054381D02*
X163949000Y-117578190D01*
X164187095Y-118054381D02*
X164187095Y-117054381D01*
X163806142Y-117054381D01*
X163710904Y-117102000D01*
X163663285Y-117149619D01*
X163615666Y-117244857D01*
X163615666Y-117387714D01*
X163663285Y-117482952D01*
X163710904Y-117530571D01*
X163806142Y-117578190D01*
X164187095Y-117578190D01*
X163282333Y-117054381D02*
X162663285Y-117054381D01*
X162996619Y-117435333D01*
X162853761Y-117435333D01*
X162758523Y-117482952D01*
X162710904Y-117530571D01*
X162663285Y-117625810D01*
X162663285Y-117863905D01*
X162710904Y-117959143D01*
X162758523Y-118006762D01*
X162853761Y-118054381D01*
X163139476Y-118054381D01*
X163234714Y-118006762D01*
X163282333Y-117959143D01*
X148452666Y-113219667D02*
X148686000Y-112886333D01*
X148852666Y-113219667D02*
X148852666Y-112519667D01*
X148586000Y-112519667D01*
X148519333Y-112553000D01*
X148486000Y-112586333D01*
X148452666Y-112653000D01*
X148452666Y-112753000D01*
X148486000Y-112819667D01*
X148519333Y-112853000D01*
X148586000Y-112886333D01*
X148852666Y-112886333D01*
X147852666Y-112753000D02*
X147852666Y-113219667D01*
X148019333Y-112486333D02*
X148186000Y-112986333D01*
X147752666Y-112986333D01*
X163575666Y-119451381D02*
X163909000Y-118975190D01*
X164147095Y-119451381D02*
X164147095Y-118451381D01*
X163766142Y-118451381D01*
X163670904Y-118499000D01*
X163623285Y-118546619D01*
X163575666Y-118641857D01*
X163575666Y-118784714D01*
X163623285Y-118879952D01*
X163670904Y-118927571D01*
X163766142Y-118975190D01*
X164147095Y-118975190D01*
X162670904Y-118451381D02*
X163147095Y-118451381D01*
X163194714Y-118927571D01*
X163147095Y-118879952D01*
X163051857Y-118832333D01*
X162813761Y-118832333D01*
X162718523Y-118879952D01*
X162670904Y-118927571D01*
X162623285Y-119022810D01*
X162623285Y-119260905D01*
X162670904Y-119356143D01*
X162718523Y-119403762D01*
X162813761Y-119451381D01*
X163051857Y-119451381D01*
X163147095Y-119403762D01*
X163194714Y-119356143D01*
X156199666Y-110298667D02*
X156433000Y-109965333D01*
X156599666Y-110298667D02*
X156599666Y-109598667D01*
X156333000Y-109598667D01*
X156266333Y-109632000D01*
X156233000Y-109665333D01*
X156199666Y-109732000D01*
X156199666Y-109832000D01*
X156233000Y-109898667D01*
X156266333Y-109932000D01*
X156333000Y-109965333D01*
X156599666Y-109965333D01*
X155966333Y-109598667D02*
X155499666Y-109598667D01*
X155799666Y-110298667D01*
X156199666Y-111822667D02*
X156433000Y-111489333D01*
X156599666Y-111822667D02*
X156599666Y-111122667D01*
X156333000Y-111122667D01*
X156266333Y-111156000D01*
X156233000Y-111189333D01*
X156199666Y-111256000D01*
X156199666Y-111356000D01*
X156233000Y-111422667D01*
X156266333Y-111456000D01*
X156333000Y-111489333D01*
X156599666Y-111489333D01*
X155866333Y-111822667D02*
X155733000Y-111822667D01*
X155666333Y-111789333D01*
X155633000Y-111756000D01*
X155566333Y-111656000D01*
X155533000Y-111522667D01*
X155533000Y-111256000D01*
X155566333Y-111189333D01*
X155599666Y-111156000D01*
X155666333Y-111122667D01*
X155799666Y-111122667D01*
X155866333Y-111156000D01*
X155899666Y-111189333D01*
X155933000Y-111256000D01*
X155933000Y-111422667D01*
X155899666Y-111489333D01*
X155866333Y-111522667D01*
X155799666Y-111556000D01*
X155666333Y-111556000D01*
X155599666Y-111522667D01*
X155566333Y-111489333D01*
X155533000Y-111422667D01*
X164866667Y-122466667D02*
X165433333Y-122466667D01*
X165500000Y-122500000D01*
X165533333Y-122533333D01*
X165566667Y-122600000D01*
X165566667Y-122733333D01*
X165533333Y-122800000D01*
X165500000Y-122833333D01*
X165433333Y-122866667D01*
X164866667Y-122866667D01*
X164933333Y-123166666D02*
X164900000Y-123200000D01*
X164866667Y-123266666D01*
X164866667Y-123433333D01*
X164900000Y-123500000D01*
X164933333Y-123533333D01*
X165000000Y-123566666D01*
X165066667Y-123566666D01*
X165166667Y-123533333D01*
X165566667Y-123133333D01*
X165566667Y-123566666D01*
X157366667Y-122466667D02*
X157933333Y-122466667D01*
X158000000Y-122500000D01*
X158033333Y-122533333D01*
X158066667Y-122600000D01*
X158066667Y-122733333D01*
X158033333Y-122800000D01*
X158000000Y-122833333D01*
X157933333Y-122866667D01*
X157366667Y-122866667D01*
X157366667Y-123133333D02*
X157366667Y-123566666D01*
X157633333Y-123333333D01*
X157633333Y-123433333D01*
X157666667Y-123500000D01*
X157700000Y-123533333D01*
X157766667Y-123566666D01*
X157933333Y-123566666D01*
X158000000Y-123533333D01*
X158033333Y-123500000D01*
X158066667Y-123433333D01*
X158066667Y-123233333D01*
X158033333Y-123166666D01*
X158000000Y-123133333D01*
M02*
