G04 #@! TF.FileFunction,Legend,Top*
%FSLAX46Y46*%
G04 Gerber Fmt 4.6, Leading zero omitted, Abs format (unit mm)*
G04 Created by KiCad (PCBNEW 4.0.7-e2-6376~58~ubuntu17.04.1) date Tue Dec 26 12:58:55 2017*
%MOMM*%
%LPD*%
G01*
G04 APERTURE LIST*
%ADD10C,0.100000*%
%ADD11C,0.200000*%
%ADD12C,0.150000*%
%ADD13C,0.152400*%
%ADD14C,0.120000*%
G04 APERTURE END LIST*
D10*
D11*
X151607144Y-111217857D02*
X152107144Y-111217857D01*
X152321430Y-112003571D02*
X151607144Y-112003571D01*
X151607144Y-110503571D01*
X152321430Y-110503571D01*
X152892858Y-111932143D02*
X153107144Y-112003571D01*
X153464287Y-112003571D01*
X153607144Y-111932143D01*
X153678573Y-111860714D01*
X153750001Y-111717857D01*
X153750001Y-111575000D01*
X153678573Y-111432143D01*
X153607144Y-111360714D01*
X153464287Y-111289286D01*
X153178573Y-111217857D01*
X153035715Y-111146429D01*
X152964287Y-111075000D01*
X152892858Y-110932143D01*
X152892858Y-110789286D01*
X152964287Y-110646429D01*
X153035715Y-110575000D01*
X153178573Y-110503571D01*
X153535715Y-110503571D01*
X153750001Y-110575000D01*
X154392858Y-112003571D02*
X154392858Y-110503571D01*
X154964286Y-110503571D01*
X155107144Y-110575000D01*
X155178572Y-110646429D01*
X155250001Y-110789286D01*
X155250001Y-111003571D01*
X155178572Y-111146429D01*
X155107144Y-111217857D01*
X154964286Y-111289286D01*
X154392858Y-111289286D01*
X156107144Y-111146429D02*
X155964286Y-111075000D01*
X155892858Y-111003571D01*
X155821429Y-110860714D01*
X155821429Y-110789286D01*
X155892858Y-110646429D01*
X155964286Y-110575000D01*
X156107144Y-110503571D01*
X156392858Y-110503571D01*
X156535715Y-110575000D01*
X156607144Y-110646429D01*
X156678572Y-110789286D01*
X156678572Y-110860714D01*
X156607144Y-111003571D01*
X156535715Y-111075000D01*
X156392858Y-111146429D01*
X156107144Y-111146429D01*
X155964286Y-111217857D01*
X155892858Y-111289286D01*
X155821429Y-111432143D01*
X155821429Y-111717857D01*
X155892858Y-111860714D01*
X155964286Y-111932143D01*
X156107144Y-112003571D01*
X156392858Y-112003571D01*
X156535715Y-111932143D01*
X156607144Y-111860714D01*
X156678572Y-111717857D01*
X156678572Y-111432143D01*
X156607144Y-111289286D01*
X156535715Y-111217857D01*
X156392858Y-111146429D01*
X157250000Y-110646429D02*
X157321429Y-110575000D01*
X157464286Y-110503571D01*
X157821429Y-110503571D01*
X157964286Y-110575000D01*
X158035715Y-110646429D01*
X158107143Y-110789286D01*
X158107143Y-110932143D01*
X158035715Y-111146429D01*
X157178572Y-112003571D01*
X158107143Y-112003571D01*
X159392857Y-110503571D02*
X159107143Y-110503571D01*
X158964286Y-110575000D01*
X158892857Y-110646429D01*
X158750000Y-110860714D01*
X158678571Y-111146429D01*
X158678571Y-111717857D01*
X158750000Y-111860714D01*
X158821428Y-111932143D01*
X158964286Y-112003571D01*
X159250000Y-112003571D01*
X159392857Y-111932143D01*
X159464286Y-111860714D01*
X159535714Y-111717857D01*
X159535714Y-111360714D01*
X159464286Y-111217857D01*
X159392857Y-111146429D01*
X159250000Y-111075000D01*
X158964286Y-111075000D01*
X158821428Y-111146429D01*
X158750000Y-111217857D01*
X158678571Y-111360714D01*
X160821428Y-110503571D02*
X160535714Y-110503571D01*
X160392857Y-110575000D01*
X160321428Y-110646429D01*
X160178571Y-110860714D01*
X160107142Y-111146429D01*
X160107142Y-111717857D01*
X160178571Y-111860714D01*
X160249999Y-111932143D01*
X160392857Y-112003571D01*
X160678571Y-112003571D01*
X160821428Y-111932143D01*
X160892857Y-111860714D01*
X160964285Y-111717857D01*
X160964285Y-111360714D01*
X160892857Y-111217857D01*
X160821428Y-111146429D01*
X160678571Y-111075000D01*
X160392857Y-111075000D01*
X160249999Y-111146429D01*
X160178571Y-111217857D01*
X160107142Y-111360714D01*
X152857143Y-114453571D02*
X152000000Y-114453571D01*
X152428572Y-114453571D02*
X152428572Y-112953571D01*
X152285715Y-113167857D01*
X152142857Y-113310714D01*
X152000000Y-113382143D01*
X153428571Y-113096429D02*
X153500000Y-113025000D01*
X153642857Y-112953571D01*
X154000000Y-112953571D01*
X154142857Y-113025000D01*
X154214286Y-113096429D01*
X154285714Y-113239286D01*
X154285714Y-113382143D01*
X154214286Y-113596429D01*
X153357143Y-114453571D01*
X154285714Y-114453571D01*
X154928571Y-113882143D02*
X156071428Y-113882143D01*
X156785714Y-113667857D02*
X157285714Y-113667857D01*
X157500000Y-114453571D02*
X156785714Y-114453571D01*
X156785714Y-112953571D01*
X157500000Y-112953571D01*
X159214285Y-112882143D02*
X157928571Y-114810714D01*
X159642857Y-114382143D02*
X159857143Y-114453571D01*
X160214286Y-114453571D01*
X160357143Y-114382143D01*
X160428572Y-114310714D01*
X160500000Y-114167857D01*
X160500000Y-114025000D01*
X160428572Y-113882143D01*
X160357143Y-113810714D01*
X160214286Y-113739286D01*
X159928572Y-113667857D01*
X159785714Y-113596429D01*
X159714286Y-113525000D01*
X159642857Y-113382143D01*
X159642857Y-113239286D01*
X159714286Y-113096429D01*
X159785714Y-113025000D01*
X159928572Y-112953571D01*
X160285714Y-112953571D01*
X160500000Y-113025000D01*
X156892858Y-116903571D02*
X156821429Y-116903571D01*
X156678572Y-116832143D01*
X156464286Y-116617857D01*
X156107143Y-116189286D01*
X155964286Y-115975000D01*
X155892858Y-115760714D01*
X155892858Y-115617857D01*
X155964286Y-115475000D01*
X156107143Y-115403571D01*
X156178572Y-115403571D01*
X156321429Y-115475000D01*
X156392858Y-115617857D01*
X156392858Y-115689286D01*
X156321429Y-115832143D01*
X156250000Y-115903571D01*
X155821429Y-116189286D01*
X155750000Y-116260714D01*
X155678572Y-116403571D01*
X155678572Y-116617857D01*
X155750000Y-116760714D01*
X155821429Y-116832143D01*
X155964286Y-116903571D01*
X156178572Y-116903571D01*
X156321429Y-116832143D01*
X156392858Y-116760714D01*
X156607143Y-116475000D01*
X156678572Y-116260714D01*
X156678572Y-116117857D01*
X152214287Y-119282143D02*
X152428573Y-119353571D01*
X152785716Y-119353571D01*
X152928573Y-119282143D01*
X153000002Y-119210714D01*
X153071430Y-119067857D01*
X153071430Y-118925000D01*
X153000002Y-118782143D01*
X152928573Y-118710714D01*
X152785716Y-118639286D01*
X152500002Y-118567857D01*
X152357144Y-118496429D01*
X152285716Y-118425000D01*
X152214287Y-118282143D01*
X152214287Y-118139286D01*
X152285716Y-117996429D01*
X152357144Y-117925000D01*
X152500002Y-117853571D01*
X152857144Y-117853571D01*
X153071430Y-117925000D01*
X153714287Y-119353571D02*
X153714287Y-117853571D01*
X154571430Y-119353571D02*
X153928573Y-118496429D01*
X154571430Y-117853571D02*
X153714287Y-118710714D01*
X155857144Y-117853571D02*
X155571430Y-117853571D01*
X155428573Y-117925000D01*
X155357144Y-117996429D01*
X155214287Y-118210714D01*
X155142858Y-118496429D01*
X155142858Y-119067857D01*
X155214287Y-119210714D01*
X155285715Y-119282143D01*
X155428573Y-119353571D01*
X155714287Y-119353571D01*
X155857144Y-119282143D01*
X155928573Y-119210714D01*
X156000001Y-119067857D01*
X156000001Y-118710714D01*
X155928573Y-118567857D01*
X155857144Y-118496429D01*
X155714287Y-118425000D01*
X155428573Y-118425000D01*
X155285715Y-118496429D01*
X155214287Y-118567857D01*
X155142858Y-118710714D01*
X156857144Y-118496429D02*
X156714286Y-118425000D01*
X156642858Y-118353571D01*
X156571429Y-118210714D01*
X156571429Y-118139286D01*
X156642858Y-117996429D01*
X156714286Y-117925000D01*
X156857144Y-117853571D01*
X157142858Y-117853571D01*
X157285715Y-117925000D01*
X157357144Y-117996429D01*
X157428572Y-118139286D01*
X157428572Y-118210714D01*
X157357144Y-118353571D01*
X157285715Y-118425000D01*
X157142858Y-118496429D01*
X156857144Y-118496429D01*
X156714286Y-118567857D01*
X156642858Y-118639286D01*
X156571429Y-118782143D01*
X156571429Y-119067857D01*
X156642858Y-119210714D01*
X156714286Y-119282143D01*
X156857144Y-119353571D01*
X157142858Y-119353571D01*
X157285715Y-119282143D01*
X157357144Y-119210714D01*
X157428572Y-119067857D01*
X157428572Y-118782143D01*
X157357144Y-118639286D01*
X157285715Y-118567857D01*
X157142858Y-118496429D01*
X158857143Y-119353571D02*
X158000000Y-119353571D01*
X158428572Y-119353571D02*
X158428572Y-117853571D01*
X158285715Y-118067857D01*
X158142857Y-118210714D01*
X158000000Y-118282143D01*
X159428571Y-117996429D02*
X159500000Y-117925000D01*
X159642857Y-117853571D01*
X160000000Y-117853571D01*
X160142857Y-117925000D01*
X160214286Y-117996429D01*
X160285714Y-118139286D01*
X160285714Y-118282143D01*
X160214286Y-118496429D01*
X159357143Y-119353571D01*
X160285714Y-119353571D01*
D10*
X162578572Y-122421429D02*
X162778572Y-123021429D01*
X162978572Y-122421429D01*
X163178572Y-123021429D02*
X163178572Y-122421429D01*
X163407144Y-122421429D01*
X163464286Y-122450000D01*
X163492858Y-122478571D01*
X163521429Y-122535714D01*
X163521429Y-122621429D01*
X163492858Y-122678571D01*
X163464286Y-122707143D01*
X163407144Y-122735714D01*
X163178572Y-122735714D01*
X164121429Y-123021429D02*
X163921429Y-122735714D01*
X163778572Y-123021429D02*
X163778572Y-122421429D01*
X164007144Y-122421429D01*
X164064286Y-122450000D01*
X164092858Y-122478571D01*
X164121429Y-122535714D01*
X164121429Y-122621429D01*
X164092858Y-122678571D01*
X164064286Y-122707143D01*
X164007144Y-122735714D01*
X163778572Y-122735714D01*
X164492858Y-122421429D02*
X164607144Y-122421429D01*
X164664286Y-122450000D01*
X164721429Y-122507143D01*
X164750001Y-122621429D01*
X164750001Y-122821429D01*
X164721429Y-122935714D01*
X164664286Y-122992857D01*
X164607144Y-123021429D01*
X164492858Y-123021429D01*
X164435715Y-122992857D01*
X164378572Y-122935714D01*
X164350001Y-122821429D01*
X164350001Y-122621429D01*
X164378572Y-122507143D01*
X164435715Y-122450000D01*
X164492858Y-122421429D01*
X165321429Y-122450000D02*
X165264286Y-122421429D01*
X165178572Y-122421429D01*
X165092857Y-122450000D01*
X165035715Y-122507143D01*
X165007143Y-122564286D01*
X164978572Y-122678571D01*
X164978572Y-122764286D01*
X165007143Y-122878571D01*
X165035715Y-122935714D01*
X165092857Y-122992857D01*
X165178572Y-123021429D01*
X165235715Y-123021429D01*
X165321429Y-122992857D01*
X165350000Y-122964286D01*
X165350000Y-122764286D01*
X165235715Y-122764286D01*
X165692857Y-122964286D02*
X165721429Y-122992857D01*
X165692857Y-123021429D01*
X165664286Y-122992857D01*
X165692857Y-122964286D01*
X165692857Y-123021429D01*
X165578572Y-122450000D02*
X165635715Y-122421429D01*
X165778572Y-122421429D01*
X165835715Y-122450000D01*
X165864286Y-122507143D01*
X165864286Y-122564286D01*
X165835715Y-122621429D01*
X165807143Y-122650000D01*
X165750000Y-122678571D01*
X165721429Y-122707143D01*
X165692857Y-122764286D01*
X165692857Y-122792857D01*
D12*
X149500000Y-131000000D02*
X152000000Y-128500000D01*
X147000000Y-126000000D02*
X147000000Y-126200000D01*
X148550000Y-126000000D02*
X147000000Y-126000000D01*
X147000000Y-128200000D02*
X147000000Y-127500000D01*
X152000000Y-126000000D02*
X148500000Y-126000000D01*
X147000000Y-128200000D02*
X147000000Y-130800000D01*
X146691421Y-125800000D02*
G75*
G03X146691421Y-125800000I-141421J0D01*
G01*
X152000000Y-127500000D02*
X152000000Y-129500000D01*
X152000000Y-130800000D02*
X152000000Y-131000000D01*
X152000000Y-131000000D02*
X147000000Y-131000000D01*
X147000000Y-131000000D02*
X147000000Y-130800000D01*
X152000000Y-126000000D02*
X152000000Y-126150000D01*
D13*
X165647000Y-125516000D02*
X162853000Y-125516000D01*
X165901000Y-123738000D02*
G75*
G03X165647000Y-123484000I-254000J0D01*
G01*
X162853000Y-123484000D02*
G75*
G03X162599000Y-123738000I0J-254000D01*
G01*
X162853000Y-125516000D02*
G75*
G02X162599000Y-125262000I0J254000D01*
G01*
X165901000Y-125262000D02*
G75*
G02X165647000Y-125516000I-254000J0D01*
G01*
X165901000Y-125262000D02*
X165901000Y-123738000D01*
X162599000Y-125262000D02*
X162599000Y-123738000D01*
X162853000Y-123484000D02*
X165647000Y-123484000D01*
D12*
X156250000Y-132250000D02*
X158750000Y-129750000D01*
X153750000Y-127250000D02*
X153750000Y-127450000D01*
X155300000Y-127250000D02*
X153750000Y-127250000D01*
X153750000Y-129450000D02*
X153750000Y-128750000D01*
X158750000Y-127250000D02*
X155250000Y-127250000D01*
X153750000Y-129450000D02*
X153750000Y-132050000D01*
X153441421Y-127050000D02*
G75*
G03X153441421Y-127050000I-141421J0D01*
G01*
X158750000Y-128750000D02*
X158750000Y-130750000D01*
X158750000Y-132050000D02*
X158750000Y-132250000D01*
X158750000Y-132250000D02*
X153750000Y-132250000D01*
X153750000Y-132250000D02*
X153750000Y-132050000D01*
X158750000Y-127250000D02*
X158750000Y-127400000D01*
X163000000Y-131000000D02*
X165500000Y-128500000D01*
X160500000Y-126000000D02*
X160500000Y-126200000D01*
X162050000Y-126000000D02*
X160500000Y-126000000D01*
X160500000Y-128200000D02*
X160500000Y-127500000D01*
X165500000Y-126000000D02*
X162000000Y-126000000D01*
X160500000Y-128200000D02*
X160500000Y-130800000D01*
X160191421Y-125800000D02*
G75*
G03X160191421Y-125800000I-141421J0D01*
G01*
X165500000Y-127500000D02*
X165500000Y-129500000D01*
X165500000Y-130800000D02*
X165500000Y-131000000D01*
X165500000Y-131000000D02*
X160500000Y-131000000D01*
X160500000Y-131000000D02*
X160500000Y-130800000D01*
X165500000Y-126000000D02*
X165500000Y-126150000D01*
D14*
X159750000Y-126200000D02*
X159750000Y-122700000D01*
X159750000Y-122700000D02*
X152750000Y-122700000D01*
X152750000Y-122700000D02*
X152750000Y-126200000D01*
X159750000Y-126200000D02*
X152750000Y-126200000D01*
X164370000Y-121000000D02*
X164370000Y-121620000D01*
X164370000Y-121620000D02*
X162250000Y-121620000D01*
X150250000Y-121620000D02*
X148130000Y-121620000D01*
X148130000Y-121620000D02*
X148130000Y-121000000D01*
D10*
X148828571Y-128321429D02*
X148542857Y-128321429D01*
X148542857Y-127721429D01*
X149028571Y-128007143D02*
X149228571Y-128007143D01*
X149314285Y-128321429D02*
X149028571Y-128321429D01*
X149028571Y-127721429D01*
X149314285Y-127721429D01*
X149571428Y-128321429D02*
X149571428Y-127721429D01*
X149714285Y-127721429D01*
X149800000Y-127750000D01*
X149857142Y-127807143D01*
X149885714Y-127864286D01*
X149914285Y-127978571D01*
X149914285Y-128064286D01*
X149885714Y-128178571D01*
X149857142Y-128235714D01*
X149800000Y-128292857D01*
X149714285Y-128321429D01*
X149571428Y-128321429D01*
X150142857Y-127778571D02*
X150171428Y-127750000D01*
X150228571Y-127721429D01*
X150371428Y-127721429D01*
X150428571Y-127750000D01*
X150457142Y-127778571D01*
X150485714Y-127835714D01*
X150485714Y-127892857D01*
X150457142Y-127978571D01*
X150114285Y-128321429D01*
X150485714Y-128321429D01*
X155578571Y-129571429D02*
X155292857Y-129571429D01*
X155292857Y-128971429D01*
X155778571Y-129257143D02*
X155978571Y-129257143D01*
X156064285Y-129571429D02*
X155778571Y-129571429D01*
X155778571Y-128971429D01*
X156064285Y-128971429D01*
X156321428Y-129571429D02*
X156321428Y-128971429D01*
X156464285Y-128971429D01*
X156550000Y-129000000D01*
X156607142Y-129057143D01*
X156635714Y-129114286D01*
X156664285Y-129228571D01*
X156664285Y-129314286D01*
X156635714Y-129428571D01*
X156607142Y-129485714D01*
X156550000Y-129542857D01*
X156464285Y-129571429D01*
X156321428Y-129571429D01*
X157235714Y-129571429D02*
X156892857Y-129571429D01*
X157064285Y-129571429D02*
X157064285Y-128971429D01*
X157007142Y-129057143D01*
X156950000Y-129114286D01*
X156892857Y-129142857D01*
X162328571Y-128321429D02*
X162042857Y-128321429D01*
X162042857Y-127721429D01*
X162528571Y-128007143D02*
X162728571Y-128007143D01*
X162814285Y-128321429D02*
X162528571Y-128321429D01*
X162528571Y-127721429D01*
X162814285Y-127721429D01*
X163071428Y-128321429D02*
X163071428Y-127721429D01*
X163214285Y-127721429D01*
X163300000Y-127750000D01*
X163357142Y-127807143D01*
X163385714Y-127864286D01*
X163414285Y-127978571D01*
X163414285Y-128064286D01*
X163385714Y-128178571D01*
X163357142Y-128235714D01*
X163300000Y-128292857D01*
X163214285Y-128321429D01*
X163071428Y-128321429D01*
X163614285Y-127721429D02*
X163985714Y-127721429D01*
X163785714Y-127950000D01*
X163871428Y-127950000D01*
X163928571Y-127978571D01*
X163957142Y-128007143D01*
X163985714Y-128064286D01*
X163985714Y-128207143D01*
X163957142Y-128264286D01*
X163928571Y-128292857D01*
X163871428Y-128321429D01*
X163700000Y-128321429D01*
X163642857Y-128292857D01*
X163614285Y-128264286D01*
X146466667Y-120866667D02*
X146466667Y-121433333D01*
X146500000Y-121500000D01*
X146533333Y-121533333D01*
X146600000Y-121566667D01*
X146733333Y-121566667D01*
X146800000Y-121533333D01*
X146833333Y-121500000D01*
X146866667Y-121433333D01*
X146866667Y-120866667D01*
X147566666Y-121566667D02*
X147166666Y-121566667D01*
X147366666Y-121566667D02*
X147366666Y-120866667D01*
X147300000Y-120966667D01*
X147233333Y-121033333D01*
X147166666Y-121066667D01*
M02*
